<svg id="Layer_1" data-name="Layer 1" xmlns="http://www.w3.org/2000/svg" viewBox="0 0 1000 991"><defs><style>.cls-1{fill:#fff;}</style></defs><path class="cls-1" d="M228.63-316.23h27c10.27,3.48,20.4,7.46,30.84,10.3,13.39,3.63,13.5,3.24,21.53-7.83.58-.8,1.09-1.65,1.63-2.47h27c-5.6,7.23-11,14.64-16.89,21.6-2.62,3.08-2.59,5.52-1,8.87,19.75,41.26,50.45,71.4,91.8,90.83,2.64,1.24,4.39,1,6.65-.85,7.36-6,14.94-11.65,22.43-17.45v27c-.83.53-1.69,1-2.49,1.61-11,8-11.52,8.16-8.09,21.13,2.81,10.61,7,20.86,10.58,31.26v27c-9.79-15.52-15.78-32.56-20.05-50.28-1.07-4.41-1.95-8.86-3-13.61-1.11.72-1.69,1-2.22,1.43q-76,56.52-152.08,112.94c-3.13,2.32-3.1,4.63-2.45,7.68,5.93,27.62,19.56,50.73,40.62,69.54,2.31,2.05,4.2,2.33,7.06,1.08Q347.12,6.22,386.82-10.8c17.57-7.55,35.21-15,52.81-22.43v20q-63.08,25-126.15,50c-2.65,1-4.55,2.06-4.75,5.44a127.07,127.07,0,0,0,21.49,79.51c1.68,2.53,3.4,2.88,6.23,2.42,12.32-2,24.69-3.65,37-5.49q33.08-4.93,66.14-9.92v18c-33.54,4-67.07,8-100.63,11.77-3.7.41-5.43,1.67-6.58,5.21-8.71,26.87-8.43,53.63.24,80.44,1,3.08,2.44,4.38,5.85,4.77,33.72,3.8,67.42,7.84,101.12,11.81v18c-1.3-.28-2.59-.63-3.9-.82-32.94-4.83-65.88-9.56-98.79-14.54-3.5-.53-5.44.16-7.35,3.08-15.58,23.8-22.22,49.92-20.81,78.24.17,3.38,1.65,4.83,4.68,6q63.14,24.9,126.17,50v20c-1.41-.47-2.85-.85-4.21-1.44Q371.7,371.84,308,344.21c-3.48-1.52-5.63-1-8.32,1.38-20.3,18.34-33.24,40.87-39.47,67.46-1.15,4.91-.12,7.69,4,10.75Q333,474.53,401.48,525.66c4.88,3.63,9.79,7.21,15.11,11.13.78-3.92,1.35-7.19,2.08-10.42,4.23-18.94,10.42-37.12,21-53.6v27c-3.56,10.58-7.67,21-10.55,31.79-3.33,12.47-2.86,12.6,7.67,20.31.92.68,1.92,1.27,2.88,1.9v27c-7.37-5.69-14.88-11.21-22-17.17-2.78-2.31-4.94-2.32-8-.88-41.55,19.66-71.79,50.49-91.33,92-1.26,2.67-.91,4.47.92,6.66,3.63,4.33,7,8.91,10.41,13.39h-27c-1.44-1.24-3-3.69-4.28-3.52-5.63.77-11.16,2.28-16.72,3.52h-35l45-15.31c-.18-.26-1-1.49-1.84-2.66Q234.19,582,178.65,507.13c-2.41-3.27-4.72-3.93-8.35-3.14-27.42,6-50.38,19.51-69.16,40.35-2.41,2.69-2.38,4.8-1,7.93Q118,593,135.44,633.86c5.83,13.6,11.47,27.27,17.19,40.91h-20a6,6,0,0,0-.17-1.48Q109.29,614.84,86,556.44a6.53,6.53,0,0,0-4.64-3.35q-43.62-3-79.84,21.62a6.45,6.45,0,0,0-2.17,5.2c2.51,18.46,5.37,36.88,8,55.34,1.88,13.16,3.56,26.34,5.33,39.52h-17C-8,644.17-11.7,613.59-15.15,583c-.4-3.54-1.63-5.21-4.93-6.29-27-8.88-54-8.61-81,.25-2.87.94-4.11,2.35-4.47,5.54-3.49,30.78-7.2,61.54-10.84,92.3h-17a48,48,0,0,1,.25-4.95c4.32-29.64,8.59-59.29,13.15-88.89.56-3.64-.46-5.41-3.28-7.26C-146.9,558.16-172.88,551.6-201,552.9c-3.49.16-5.16,1.59-6.43,4.86C-218,584.88-228.85,611.91-239.53,639c-4.69,11.89-9.23,23.85-13.84,35.78h-20c.52-1.56.93-3.16,1.58-4.66q25.4-58.93,50.91-117.8c1.47-3.37,1.32-5.56-1.2-8.35-18.8-20.89-42-33.91-69.36-40-3.57-.79-5.71.15-7.92,3.13Q-345.58,569.57-392,631.86c-7,9.45-14.05,18.92-21.41,28.84,3.87.77,7.21,1.11,10.34,2.12,12,3.87,23.83,7.95,35.73,11.95h-36c-4.74-1.11-9.51-2.08-14.2-3.36-3.27-.9-5,.36-5.8,3.36h-27c3.35-4.35,6.48-8.89,10.12-13,2.39-2.68,2.39-4.91.95-8-19.63-41.58-50.47-71.8-92-91.35-2.63-1.24-4.39-1-6.65.83-7.37,6-14.94,11.66-22.44,17.46v-27c.7-.44,1.42-.83,2.09-1.32,11.58-8.37,12-8.49,8.26-22.39-2.77-10.28-6.85-20.2-10.35-30.29v-27c9.72,15.36,15.63,32.26,20,49.79,1.12,4.56,2,9.19,3.08,14.19,1.25-.87,1.94-1.33,2.6-1.82q75.8-56.37,151.67-112.64c3.14-2.32,3.12-4.63,2.47-7.68-5.94-27.62-19.56-50.73-40.63-69.54-2.3-2.06-4.21-2.33-7.06-1.08q-44,19.17-88,38.08c-14.66,6.31-29.38,12.47-44.08,18.7v-20q63.06-25,126.15-50c2.64-1,4.54-2.05,4.74-5.43A126.82,126.82,0,0,0-451,245.78c-1.66-2.52-3.38-2.89-6.22-2.43-12.32,2-24.69,3.66-37,5.5q-33.07,4.93-66.14,9.92v-18c33.7-4,67.4-8,101.12-11.82,3.37-.38,4.87-1.59,5.9-4.7,9-27.17,8.65-54.25-.2-81.38-1-3-2.67-3.91-5.7-4.26-33.72-3.85-67.42-7.87-101.12-11.84v-18c1.3.28,2.59.63,3.9.82,32.93,4.82,65.88,9.56,98.78,14.54,3.5.53,5.44-.17,7.35-3.09,15.6-23.79,22.22-49.91,20.82-78.23-.17-3.38-1.66-4.83-4.68-6q-63.14-24.9-126.17-50v-20c1.56.55,3.15,1,4.66,1.66,42.19,18.18,84.39,36.31,126.48,54.7,3.88,1.69,6.22,1.18,9.16-1.51C-400,3.31-387.16-19.09-381-45.51c1.15-4.9.14-7.68-4-10.75Q-453.77-107-522.21-158.12c-4.88-3.63-9.79-7.21-15.12-11.13-.78,3.93-1.36,7.19-2.08,10.42-4.23,19-10.44,37.12-21,53.6v-27c3.47-10.27,7.46-20.39,10.29-30.83,3.63-13.43,3.23-13.54-7.8-21.57-.8-.58-1.66-1.07-2.49-1.6v-27c7.49,5.8,15.09,11.47,22.42,17.46,2.45,2,4.33,2.08,7.09.78,41.82-19.56,72.14-50.5,91.79-92.13,1.25-2.64,1-4.42-.85-6.68-5.95-7.37-11.65-14.94-17.45-22.43h27c.54.83,1.05,1.68,1.63,2.48,8,11,8.14,11.51,21.1,8.09,10.62-2.8,20.86-7,31.27-10.57h27a28.58,28.58,0,0,1-2.81,2A186.92,186.92,0,0,1-404-295.17l-9.35,1.95c1,1.41,1.5,2.25,2.09,3q56.22,75.6,112.35,151.26c2.33,3.15,4.64,3.11,7.69,2.46,27.45-5.88,50.43-19.39,69.21-40.23,2.31-2.56,2.67-4.64,1.23-7.9q-17.37-39.56-34.36-79.28c-7.48-17.42-14.82-34.91-22.23-52.36h20q25,63.08,50,126.18c1.31,3.32,3,4.59,6.51,4.77,28.37,1.45,54.35-5.7,78.1-21.26,2.56-1.67,3.37-3.35,2.85-6.52-2-12.31-3.68-24.69-5.52-37q-4.92-33.07-9.92-66.14h18c4,33.7,8,67.39,11.81,101.11.38,3.39,1.63,4.89,4.71,5.91,27.34,9,54.58,8.68,81.83-.39,3-1,3.47-2.85,3.78-5.52q5.85-50.56,11.87-101.11h18c-.28,1.3-.63,2.59-.82,3.9C9-279.4,4.24-246.46-.73-213.56c-.53,3.49.16,5.43,3.09,7.35C26.15-190.6,52.27-184,80.58-185.38c3.35-.16,4.85-1.64,6-4.67q24.89-63.13,50-126.18h20c-.48,1.4-.88,2.84-1.47,4.2q-27.48,63.72-55.1,127.4c-1.51,3.46-1.07,5.61,1.38,8.32,18.22,20.15,40.59,33,67,39.35,5.28,1.27,8.23.17,11.54-4.31Q233.64-214,287.78-286.47c1.54-2.08,3.05-4.17,4.87-6.66-5.25-1.1-9.83-1.93-14.34-3C260.78-300.43,243.92-306.4,228.63-316.23Zm80.52,35.58c-1.28,1.47-2.29,2.53-3.2,3.68Q247.8-203.5,189.58-130.07c-2.19,2.75-2,4.8-.59,7.58,12.76,25.24,31.93,44,57,56.89,3.17,1.63,5.25,1.16,8-1Q326.76-124.4,399.7-182c1.38-1.1,2.71-2.26,4.36-3.63C360.29-205.57,329.16-237.31,309.15-280.65Zm-738.89-.15c-20,43.94-51.76,75.07-95.07,95.09,1.3,1.13,2.14,1.91,3,2.62q73.88,58.46,147.69,117c2.54,2,4.46,2,7.13.68,25.26-12.69,44.1-31.76,57-56.85,1.69-3.28,1.44-5.47-.88-8.39q-45-56.5-89.68-113.21C-410.07-256-419.68-268.12-429.74-280.8Zm-.15,929c1.18-1.34,2.08-2.28,2.89-3.29q58.32-73.67,116.69-147.29c2.19-2.75,2-4.81.57-7.59-12.77-25.24-31.94-44-57-56.88-3.2-1.65-5.29-1.1-8,1q-73,57.94-146.13,115.73c-1.25,1-2.43,2-3.94,3.31C-481,573.11-449.9,604.87-429.89,648.18Zm834-94.91c-1.14-1-1.71-1.6-2.35-2.1q-74.27-58.77-148.47-117.6c-2.61-2.07-4.56-1.82-7.15-.52-25.43,12.78-44.3,32.05-57.22,57.34-1.52,3-1.09,5,1,7.55Q247,569.94,304,642.1c1.53,1.93,3.09,3.82,5,6.16C328.91,604.57,360.58,573.37,404.07,553.27ZM323.9,241.88c-1.73-.42-2.84-.77-4-.94-39.53-5.79-79.08-11.52-118.6-17.44-3.29-.5-5.17.12-6.94,2.93A82.17,82.17,0,0,0,181.69,273c.08,4,1.38,6.17,5.31,7.7,30.24,11.8,60.37,23.85,90.54,35.81,7.81,3.1,15.64,6.13,23.89,9.37C298.82,295,306.5,267.44,323.9,241.88ZM244.28,425.77a25.89,25.89,0,0,1-2.94-1.61q-47.84-37.8-95.73-75.52a7,7,0,0,0-6.06-.6c-15.47,7.54-26.87,19.31-35.05,34.4-1.85,3.4-1.63,5.68.86,8.8q37.11,46.45,73.9,93.19c.79,1,1.72,1.88,2.8,3.05C195.18,459.51,215.7,439.45,244.28,425.77ZM81.79-178.09C50.58-175.35,23-183.25-2.33-200.48c-.38,1.61-.68,2.55-.82,3.52C-9-157.26-14.7-117.55-20.65-77.87c-.5,3.35.24,5.14,3,6.9,14.69,9.31,30.71,13.27,48,12.59,3.18-.13,4.59-1.51,5.71-4.38,8.54-21.86,17.24-43.65,25.9-65.46Zm-447.15,120a15.22,15.22,0,0,1,2.91,1.17q48,38,96.13,75.84a7,7,0,0,0,6.06.57C-244.65,11.83-233.12,0-225-15.4c1.64-3.09,1.38-5.17-.82-7.93Q-263.06-70-300-116.93c-.78-1-1.71-1.85-2.77-3C-315.92-92.07-336.29-72-365.36-58.09Zm-79.31,183.8c1.77.41,2.72.71,3.69.85,39.54,5.79,79.09,11.49,118.6,17.46,3.84.58,5.76-.44,7.64-3.5a82.71,82.71,0,0,0,12.3-46.14c-.08-4.16-1.7-6.08-5.5-7.56-25.75-10-51.4-20.26-77.09-30.44l-37.12-14.72C-419.55,72.52-427.22,100.17-444.67,125.71ZM182.14-119.92a12.84,12.84,0,0,0-1.52,1.32Q142.45-70.4,104.43-22.11a6.92,6.92,0,0,0-.51,6.07c7.71,15.58,19.59,27.09,35,35.2,3.17,1.68,5.21,1.23,7.91-.91q46.53-37,93.23-73.88c1.08-.86,2.06-1.86,3.34-3C215.37-71.84,195.37-92.24,182.14-119.92ZM-118.5,568a33,33,0,0,0,.89-3.38c5.86-40,11.65-80.07,17.65-120.07.49-3.23-.84-4.51-3.05-5.94-14.63-9.42-30.66-13.34-48-12.72-3.47.12-4.83,1.77-6,4.73q-18.17,46.23-36.56,92.39c-2.92,7.35-5.82,14.7-8.94,22.58C-171.55,542.93-144,550.63-118.5,568Zm-184.37-80.54A16.26,16.26,0,0,0-301.2,486Q-263,437.74-225,389.44c1-1.33,1-4.46.24-6.09-7.77-15.56-19.69-27-35.07-35.09-3-1.58-4.93-1.16-7.5.89q-43.59,34.71-87.35,69.22c-3.1,2.45-6.15,4.95-9.57,7.71C-336.15,439.32-316,459.81-302.87,487.47Zm199.2-689.9c0,1.15-.06,1.79,0,2.41,4.72,40.71,9.41,81.42,14.35,122.1.2,1.64,2.48,3.78,4.23,4.36,16.5,5.53,33,5.15,49.59-.09,2.93-.93,4.09-2.42,4.45-5.56,4.12-36.41,8.43-72.81,12.67-109.21.52-4.49.94-9,1.46-14C-46.27-191.95-74.82-192.27-103.67-202.43ZM-373.19,414.23a9.77,9.77,0,0,0,1.75-.75q49.53-36.8,98.94-73.76c1.33-1,2-4.08,1.66-5.91-3.48-16.84-11.94-30.88-24.51-42.56-2.54-2.37-4.66-2.67-7.92-1.24-31.26,13.66-62.61,27.13-93.93,40.66-6.32,2.73-12.63,5.51-19.45,8.48C-392.88,359.26-378.81,384.28-373.19,414.23Zm543.44,82.36c-.67-1.14-1.1-2-1.67-2.8q-36.22-48.74-72.41-97.5c-1.83-2.47-3.7-2.83-6.38-2.23A81.22,81.22,0,0,0,46.87,419c-2.31,2.51-2.38,4.54-1.08,7.52q19,43.49,37.73,87.07L95,540.09C115,516.38,140,502.17,170.25,496.59ZM252.44-46.89c-1.08.63-1.67.9-2.19,1.28Q201.14-9.1,152,27.36c-2.57,1.9-2.58,3.89-2,6.46a80.91,80.91,0,0,0,24.69,42.51c2.57,2.4,4.7,2.59,7.93,1.18q54.22-23.64,108.59-47c1.43-.62,2.79-1.39,4.58-2.29C272.21,8.32,258.15-16.55,252.44-46.89ZM-17.49,569.83c.36-.79.49-.94.48-1.08-4.75-41.16-9.48-82.32-14.42-123.45-.19-1.54-2.27-3.55-3.9-4.1-16.63-5.62-33.31-5.3-50,0-3,1-4,2.54-4.37,5.6-3.78,33.23-7.72,66.44-11.59,99.66-.9,7.64-1.7,15.3-2.61,23.53C-74.58,559.52-46,559.79-17.49,569.83ZM-215.7-172.59c-20.2,23.9-45.22,38-75.34,43.59.63,1,.91,1.63,1.29,2.15q36.53,49.14,73,98.31c1.93,2.61,3.93,2.5,6.47,1.94,16.79-3.73,30.83-12.13,42.52-24.69,2.43-2.61,2.56-4.76,1.15-8-8-18-15.68-36-23.48-54C-198.55-132.84-207-152.4-215.7-172.59Zm297,718.21a9.15,9.15,0,0,0-.25-1.8Q58.33,486.47,35.45,429.2A6.47,6.47,0,0,0,30.77,426c-17.72-1.23-33.92,3.47-48.8,13-2.36,1.52-3.12,3.1-2.66,6.12,4.66,30.79,9.07,61.62,13.59,92.43,1.46,10,3,20,4.61,30.55C23.09,550.37,50.89,543.18,81.29,545.62Zm-297.23-5.68a20.89,20.89,0,0,0,1.08-1.86q24.39-56.39,48.6-112.83c.68-1.59,0-4.63-1.16-6-11.32-13-25.62-20.92-42.36-24.82-3.64-.85-5.67-.17-7.9,2.86-15.68,21.35-31.56,42.55-47.36,63.81-8.63,11.6-17.24,23.21-26.24,35.33C-260.71,502-236,516.5-215.94,539.94ZM325.77,140.65a13.15,13.15,0,0,0-1.75-.24c-40.82,4.74-81.65,9.45-122.44,14.39-1.7.2-4,2.3-4.55,4-5.59,16.63-5.28,33.33.09,50,.86,2.69,2.1,3.91,5.14,4.26,36.54,4.13,73.05,8.45,109.57,12.71,4.49.52,9,.95,14,1.48C315.35,197.9,315.68,169.37,325.77,140.65ZM295.7,339.38a13,13,0,0,0-1.59-1c-37.73-16.31-75.45-32.66-113.27-48.77-1.54-.66-4.55.2-5.93,1.42-12.78,11.25-20.66,25.42-24.56,42-.9,3.79-.2,5.92,3,8.3q47.67,35.13,95.09,70.58c1.15.86,2.4,1.59,3.92,2.6C257.88,383.93,272.53,359.21,295.7,339.38Zm-413.94-540c-25.68,17.91-53.49,24.95-83.74,22.57a6.76,6.76,0,0,0,.08,1.47Q-179.1-119-156.14-61.52c.59,1.48,3.08,3,4.78,3.1,17.53,1.17,33.59-3.47,48.37-12.87,2.53-1.61,3.41-3.26,2.92-6.48-4.33-28.48-8.39-57-12.57-85.51C-114.42-175.45-116.28-187.61-118.24-200.64ZM-446.49,226.75a7.3,7.3,0,0,0,1.54.38c41-4.75,82-9.47,122.94-14.41,1.56-.19,3.64-2.2,4.18-3.8,5.64-16.63,5.33-33.31.05-50-.93-2.93-2.38-4.1-5.53-4.46-33.23-3.76-66.44-7.72-99.65-11.6-7.68-.9-15.37-1.71-23.64-2.62C-436.15,169.46-436.36,198-446.49,226.75Zm30-198.57a13.71,13.71,0,0,0,1.62,1Q-358.23,53.68-301.57,78c1.54.65,4.55-.22,5.94-1.45,12.9-11.38,20.82-25.72,24.65-42.46.79-3.42.09-5.36-2.77-7.48q-48-35.46-95.88-71.19c-1-.75-2.14-1.35-3.52-2.21C-378.59-16.35-393.32,8.33-416.45,28.18ZM324,125.9c-17.94-25.81-24.91-53.6-22.62-83.84a12.73,12.73,0,0,0-1.6.25Q242.49,65,185.22,87.91c-1.59.64-3.27,3.25-3.39,5-1.15,17.35,3.41,33.26,12.68,47.92,1.7,2.69,3.4,3.7,6.83,3.18,30.78-4.68,61.61-9.1,92.42-13.61C303.61,129,313.46,127.48,324,125.9ZM-444.8,241.64c18,25.77,24.93,53.57,22.63,83.81a10.82,10.82,0,0,0,1.56-.22q57.33-22.71,114.6-45.58a7,7,0,0,0,3.44-5c1.16-17.53-3.51-33.57-12.92-48.35-1.69-2.66-3.49-3.22-6.55-2.76-28.65,4.31-57.33,8.43-86,12.63C-420,237.9-432,239.73-444.8,241.64Zm540-414.07c-.63,1.13-1,1.69-1.27,2.3Q69.65-114,45.53-57.75a7,7,0,0,0,1.12,6C58-38.79,72.26-30.83,89-26.93c3.57.84,5.65.29,7.92-2.79q35.16-47.65,70.62-95.09c.92-1.23,1.69-2.57,2.75-4.18C139.77-134.51,115.18-149.06,95.17-172.43ZM89.33,388.12a7.63,7.63,0,0,0-.62-1.66C73.34,365.75,58,345,42.45,324.44c-.87-1.16-3.46-1.83-5-1.52-10.26,2.05-18.8,7.26-26.06,14.76-2,2.1-2.3,3.82-1.08,6.56,6.15,13.82,12.05,27.76,18.05,41.65,4.24,9.84,8.51,19.68,13,30.13C54.4,400.81,70.35,391.91,89.33,388.12Zm-300-408.59c16.15,21.7,31.69,42.7,47.46,63.53.92,1.22,3.78,1.85,5.47,1.49,10-2.15,18.46-7.27,25.59-14.66,2-2.08,2.38-3.8,1.12-6.55-4.55-10-8.77-20.13-13.12-30.21-5.9-13.66-11.8-27.33-18-41.64C-175.09-33.28-191-24.39-210.66-20.47Zm-101.6,231.73a7.35,7.35,0,0,0,1.6.31c25.63-3,51.27-5.88,76.87-9.06,1.55-.19,3.59-2.26,4.12-3.88a46.42,46.42,0,0,0-.13-29.91,6.91,6.91,0,0,0-4.72-3.76c-13.52-1.86-27.09-3.37-40.65-4.94-12.2-1.41-24.41-2.77-37.2-4.22A81.42,81.42,0,0,1-312.26,211.26ZM191.52,156.2a12.43,12.43,0,0,0-2.21-.21c-25.46,2.95-50.93,5.87-76.37,9-1.53.2-3.52,2.34-4,4-3.13,9.59-2.94,19.28-.27,29,.87,3.15,2.3,4.49,5.74,4.85,16.06,1.66,32.08,3.7,48.12,5.57,9.55,1.11,19.12,2.15,29.18,3.27C184.93,192.94,185.21,174.64,191.52,156.2ZM-88-68.13a12.12,12.12,0,0,0-.18,2.22c3,25.47,5.87,50.95,9,76.4.18,1.45,2,3.39,3.52,3.88a49.79,49.79,0,0,0,30,.27c3-.87,4-2.51,4.35-5.6C-39.57-7-37.55-23-35.69-39.09c1.11-9.55,2.15-19.1,3.27-29.13C-51.24-61.58-69.54-61.78-88-68.13Zm-121.79,455c9.1,3.84,18.1,6.63,26,11.26s14.71,11.07,22.09,16.79c10.25-23.7,20.72-47.77,31-71.94.55-1.29-.31-3.86-1.38-5.06-7-7.8-15.76-12.57-25.87-15.12-2.94-.74-4.52.27-6.19,2.56-8.95,12.21-18.06,24.31-27.09,36.46C-197.54,370.33-203.84,378.87-209.76,386.87ZM-32.63,435.7a25.81,25.81,0,0,0,0-2.84c-2.92-25.14-5.79-50.29-9-75.39-.21-1.68-2.39-3.89-4.1-4.45-9.77-3.19-19.64-2.95-29.5-.09-2.75.8-3.91,2.14-4.23,5.16-1.71,16.22-3.74,32.41-5.62,48.62-1.11,9.52-2.14,19-3.25,29C-69.44,429.12-51.15,429.35-32.63,435.7ZM171.92,285.55c-24.71-10.7-48.64-21.11-72.66-31.29-1.44-.61-4.24.12-5.51,1.24-7.83,6.93-12.54,15.77-15.11,25.87-.76,3,.37,4.52,2.62,6.18,15.28,11.24,30.47,22.61,45.7,33.93,5.43,4,10.88,8,16.87,12.48A82.68,82.68,0,0,1,171.92,285.55Zm-464.56,0c15.28,13,24.15,29.12,28.07,48.47C-243,318-222,302.42-201.16,286.67c1.24-.94,1.93-3.78,1.58-5.46-2.06-9.88-7.11-18.16-14.24-25.28-2.29-2.29-4.2-2.81-7.39-1.37-13.79,6.23-27.74,12.1-41.63,18.1ZM143.91,33.47c-21.66,16.11-42.66,31.65-63.49,47.41-1.24.94-1.93,3.77-1.58,5.45C80.9,96.21,86,104.5,93.08,111.62c2.3,2.3,4.22,2.78,7.4,1.35,15.17-6.81,30.49-13.29,45.76-19.89l25.61-11C156.79,69,147.73,53.16,143.91,33.47Zm-102.52-82C30.67-23.72,20.21.33,10,24.48c-.56,1.31.23,3.89,1.29,5.08C18.08,37.25,26.74,42,36.62,44.62c3.25.88,5.05-.07,7-2.75C57.91,22.42,72.37,3.11,86.76-16.25c.92-1.24,1.7-2.59,2.8-4.28C70.15-24.25,54.54-33.46,41.39-48.51ZM-292.64,82c24.75,10.71,48.68,21.14,72.71,31.31,1.43.61,4.21-.2,5.49-1.33,7.45-6.55,12-14.94,14.72-24.44,1-3.49.4-5.65-2.72-7.93C-220.06,66.77-237.49,53.67-255,40.67l-9.6-7.13C-268.38,53.12-277.57,68.91-292.64,82ZM-98.53,434.48c3.94-26.91,7.8-52.93,11.44-79,.18-1.27-1.19-3.32-2.42-4.14-8.57-5.69-18.11-8.07-28.39-8-3.32,0-5,1.2-6.21,4.31-8.9,22.79-18,45.52-27,68.27-.45,1.15-.69,2.38-1.15,4C-132.67,418.48-115.18,423.33-98.53,434.48Zm76.88-501c-.39.56-.54.68-.56.82C-26.06-39.82-30-14-33.64,11.9c-.18,1.3,1.1,3.38,2.3,4.19,8.55,5.75,18.1,8.11,28.37,8.12,3.55,0,5.21-1.38,6.47-4.66C10.14,2.31,17-14.84,23.82-32l8.09-20.39C11.9-50.84-5.7-55.91-21.65-66.49ZM-258,25.13a7.64,7.64,0,0,0,.9,1.29c20.22,16,40.42,32.11,60.78,48,1.24,1,4.15.93,5.68.17,9.19-4.61,16-11.79,21-20.7,1.57-2.75,1.11-4.67-.82-7.09-15.18-19-30.21-38.09-45.31-57.16-.91-1.15-1.93-2.21-3.17-3.62A81.71,81.71,0,0,1-258,25.13ZM175.74,92a10.48,10.48,0,0,0-1.89.27c-23.83,9.43-47.67,18.83-71.42,28.47-1.46.59-2.92,3.06-3,4.75-.69,10.45,2.15,20.06,7.58,29,1.41,2.32,2.92,3,5.68,2.53,15-2.33,30-4.39,45-6.59,10.64-1.56,21.26-3.19,32.61-4.9A82.67,82.67,0,0,1,175.74,92ZM-219,381.33a7.46,7.46,0,0,0,1.4-1c16-20.22,32.1-40.41,48-60.76.9-1.15.88-3.84.18-5.27-4.63-9.39-11.9-16.29-21-21.38-2.54-1.42-4.34-1.18-6.66.69-14.8,11.89-29.73,23.6-44.62,35.38-5.43,4.3-10.85,8.62-16.65,13.23C-240.28,350.83-227.53,363.94-219,381.33ZM98.31-13.77a6.18,6.18,0,0,0-1.25.78c-16,20.22-32.12,40.41-48,60.76-1,1.25-1,4.15-.27,5.68,4.55,9.23,11.74,16,20.64,21.07,2.68,1.52,4.61,1.31,7.1-.68,19-15.2,38.08-30.22,57.13-45.31,1.2-1,2.33-2,3.79-3.24A81.74,81.74,0,0,1,98.31-13.77ZM-296.48,275.59a16,16,0,0,0,2.22-.49c23.68-9.37,47.37-18.7,71-28.27a6.44,6.44,0,0,0,3.15-4.68,45.88,45.88,0,0,0-7.94-29.32,6.47,6.47,0,0,0-5.15-2.15c-9.92,1.17-19.79,2.71-29.67,4.16-15.78,2.32-31.55,4.67-48.15,7.12C-299.73,238.4-295.27,256.15-296.48,275.59Zm433.56,66.88c-.22-.53-.24-.74-.35-.83C116.28,325.37,95.85,309.07,75.28,293c-1.12-.88-3.83-.77-5.26-.06-9.36,4.68-16.26,11.94-21.33,21.07-1.47,2.62-1,4.41.82,6.65q22.91,28.69,45.62,57.53c.86,1.09,1.87,2.06,3,3.34A81.7,81.7,0,0,1,137.08,342.47ZM-152.52-52c9.89,24.91,19.53,49.35,29.39,73.7.48,1.19,2.75,2.26,4.25,2.36a46.63,46.63,0,0,0,29.35-7.91A6.37,6.37,0,0,0-87.27,11c-2.39-17.82-5.06-35.6-7.67-53.4-1.16-7.94-2.37-15.88-3.59-24.05C-123.31-53.56-123.31-53.56-152.52-52Zm342.87,274c-26.86-3.94-52.86-7.79-78.9-11.43-1.29-.19-3.38,1.11-4.19,2.33-5.62,8.41-8,17.79-8.08,27.88,0,3.65,1.14,5.57,4.72,7,21.43,8.26,42.75,16.81,64.1,25.26l7.79,3.08C174.32,256.14,179.17,238.64,190.35,221.93ZM-22.19,434.34C-5.73,423.27,12,418.56,31.27,419.91a6.42,6.42,0,0,0-.11-1.74c-9.48-24-18.94-48-28.63-71.91-.54-1.34-2.89-2.63-4.48-2.74-10.46-.71-20.06,2.16-29,7.52-2.51,1.5-3.15,3.14-2.65,6.09,1.67,9.85,2.93,19.76,4.38,29.65C-26.95,402.4-24.62,418-22.19,434.34ZM-311.1,145.61c26.91,3.94,52.92,7.79,79,11.42,1.28.18,3.35-1.15,4.16-2.38,5.62-8.41,7.95-17.8,8.06-27.88,0-3.71-1.28-5.55-4.8-6.91-22.64-8.79-45.19-17.84-67.78-26.78-1.16-.45-2.4-.72-4-1.2C-295.06,111.44-299.92,128.93-311.1,145.61Zm86.94,63.57A56.09,56.09,0,0,1-215,243.71c16.35-6.5,31.91-12.62,47.38-19a4.53,4.53,0,0,0,2-3.85,151.1,151.1,0,0,0-4.53-16.62c-.39-1.15-2.82-2.49-4.12-2.31C-190.69,204.18-207.06,206.66-224.16,209.18ZM-78.23,18.91c1.7,14.65,3.4,28.45,4.87,42.28C-72.11,73-70.68,74.27-58.57,73.66c1.15-.06,2.31-.25,3.46-.35,4.44-.39,7.49-1.85,7.2-7.25-.17-3.27.71-6.59,1.1-9.89C-45.41,44-44,31.86-42.55,19.11A57.42,57.42,0,0,1-78.23,18.91Zm182.68,147c-14.87,1.72-28.74,3.4-42.63,4.91-11.29,1.22-12.4,2.32-12.09,13.71a69.22,69.22,0,0,0,1,7.41c.38,2.7,1.85,3.74,4.67,4,10.44,1,20.84,2.42,31.27,3.63,5.71.67,11.43,1.26,17.7,1.94A57.11,57.11,0,0,1,104.45,165.91ZM-42.61,347.77c-1.61-13.9-3.3-27.72-4.79-41.56-1.24-11.55-2.59-12.84-14.41-12.33-2.14.09-4.27.6-6.4.89-2.84.39-4.12,1.74-4.38,4.86-.74,8.77-1.93,17.5-3,26.24-.86,7.35-1.74,14.71-2.58,21.81,6.23-.71,12-1.9,17.72-1.88S-48.92,347-42.61,347.77ZM-225.1,201.51c1.76-.16,2.88-.25,4-.37,12.73-1.47,25.46-3,38.21-4.39,11.72-1.25,12.93-2.5,12.42-14.39-.09-2.14-.62-4.27-.88-6.41-.36-2.9-1.78-4.1-4.88-4.39-11.27-1.09-22.5-2.54-33.74-3.85-4.85-.57-9.7-1.11-15.15-1.74A57.25,57.25,0,0,1-225.1,201.51Zm104.78-172.4c6.47,16.32,12.47,31.64,18.72,46.85.5,1.23,2.84,2.74,4,2.5A127.39,127.39,0,0,0-80.94,74c1.21-.42,2.41-3,2.32-4.59-.26-4.47-1.17-8.9-1.83-13.34-1.74-11.77-3.49-23.53-5.35-36A56,56,0,0,1-120.32,29.11Zm85.26-8.44C-37.15,34.78-39.28,48.86-41.29,63c-1.5,10.61-.33,12.25,10.19,14.66,2.41.55,4.93.64,7.38,1,2.83.44,4.14-.94,5.11-3.46C-13.07,61-7.39,46.77-1.79,32.55a13.75,13.75,0,0,0,.56-2.65c-6.12-.88-12-1.16-17.53-2.67S-29.44,23-35.06,20.67ZM93.59,124.36c-1.39.47-2.94.92-4.44,1.51q-17,6.69-33.87,13.43c-11.77,4.68-12.93,7.41-8.21,19.48.61,1.54,1.13,3.32,2.26,4.4s3.14,2.43,4.67,2.34c4.47-.26,8.91-1.17,13.35-1.83l35.26-5.24c-2.36-5.85-5.07-11-6.53-16.59S94.4,130.45,93.59,124.36ZM-85.77,347.62c2.53-17.27,5-33.8,7.25-50.35a4.55,4.55,0,0,0-2.32-3.67c-5.11-1.81-10.35-3.29-15.6-4.64-3.07-.79-4.71.77-5.85,3.76-5.35,13.95-10.93,27.81-16.4,41.72-.45,1.14-.68,2.36-1.11,3.9A55.82,55.82,0,0,1-85.77,347.62ZM-224.1,158.37c14.73,2.17,28.82,4.32,42.92,6.32,10.71,1.51,12.4.23,14.77-10.66.42-1.94.59-3.94.89-5.9.51-3.24-.56-5.2-3.91-6.32-5.2-1.72-10.22-4-15.32-6l-30.29-12C-214.11,136.67-217.57,147.73-224.1,158.37Zm327.52,50.81c-14.77-2.18-28.84-4.33-42.93-6.32-10.74-1.52-12.48-.22-14.81,10.6-.45,2.1-.58,4.27-.92,6.4-.5,3.17,1,4.71,3.89,5.84,14,5.36,27.82,10.94,41.73,16.41a36.2,36.2,0,0,0,3.87,1.07C93.51,230.68,96.8,219.72,103.42,209.18ZM-.42,338.42c-6.46-16.27-12.46-31.58-18.7-46.79-.51-1.24-2.58-2.45-4-2.58a25.89,25.89,0,0,0-7.4.76c-10.87,2.21-12.26,4.07-10.75,14.71,2,14.09,4.14,28.16,6.34,43.08C-24.33,340.59-13.21,337.86-.42,338.42Zm37.9-20.86-25.22-34c-7.21-9.72-9.56-10.09-19.81-3.07-1.37.94-2.58,2.11-3.93,3.07-2.56,1.84-2.85,3.83-1.53,6.8,6.1,13.67,11.93,27.45,17.89,41.18.49,1.13,1.18,2.17,2,3.58C15.19,325.84,25.24,320.3,37.48,317.56Zm-195.27-267,25.16,33.85c6.76,9.11,8.94,9.49,18.7,3.1,1.67-1.09,3.12-2.49,4.75-3.65,2.61-1.87,2.69-3.92,1.4-6.82-6.08-13.67-11.92-27.44-17.88-41.17a28,28,0,0,0-1.55-2.77c-5,3.71-9.36,7.64-14.36,10.49S-152.15,48.2-157.79,50.57Zm30.45,285c7-16.16,13.62-31.53,20.19-46.93a3.15,3.15,0,0,0-.08-2.68c-4.68-5.5-10.61-9.7-17.71-10.07-2.42-.13-5.11,4.68-7.67,7.25a12,12,0,0,0-.9,1.19l-24.66,33.19C-146,320.3-136,325.83-127.34,335.53ZM6.6,32-10.91,72.51c-4.08,9.43-3.84,10.16,5,15.56.43.26.85.52,1.29.76C4.1,93.63,5.18,93.41,11,85.61q4.62-6.19,9.24-12.4C25.88,65.62,31.51,58,37.42,50.05A56.5,56.5,0,0,1,6.6,32Zm19.54,81.58L68.78,79.87a55.62,55.62,0,0,1-25.2-25.32C32.3,68.8,21.48,82.46,9.78,97.26Zm-173,140.29c-14.81,11.71-28.47,22.53-42.68,33.76A55.33,55.33,0,0,1-164.33,313l33.8-42.7Zm-65.26-137.12c16.12,7,31.47,13.63,46.9,20.13a4,4,0,0,0,3.72-1q4.89-7.68,9.12-15.75a4,4,0,0,0-.94-3.78c-13.36-10.13-26.84-20.1-40.76-30.45A56.68,56.68,0,0,1-212.12,116.79Zm22.58-36.93C-178,89-167,97.67-156.07,106.37c9.18,7.28,11.28,7.11,19.2-1.89,1.31-1.5,2.37-3.21,3.59-4.79,1.77-2.29,1.58-4.14-.36-6.51-7.09-8.61-13.9-17.45-20.83-26.2-3.14-4-6.31-7.92-9.87-12.4C-170,66.05-178.33,74-189.54,79.86ZM68.82,287.7c-11.53-9.13-22.5-17.8-33.45-26.5-9.22-7.31-11.28-7.15-19.21,1.83-1.32,1.49-2.37,3.2-3.6,4.78-1.77,2.28-1.68,4.15.31,6.51,5.35,6.37,10.39,13,15.56,19.54l15.12,19.07A55.86,55.86,0,0,1,68.82,287.7ZM91.29,116.78c-9.59-8.46-15.1-18.65-17.89-30.86C61.66,94.65,50.46,103,39.25,111.29c-9.44,7-9.85,9.44-3,19.46,1,1.5,2.27,2.86,3.39,4.3,1.74,2.25,3.56,2.77,6.4,1.46,8.9-4.11,18-7.87,27-11.77ZM-194.17,281.54c2-1.41,3.57-2.52,5.14-3.69q14.42-10.71,28.83-21.44c9.69-7.18,10.11-9.66,3.09-19.82-.94-1.37-2.11-2.57-3.08-3.92-1.83-2.57-3.82-2.84-6.79-1.52-13.81,6.16-27.74,12-41.62,18.06a32.19,32.19,0,0,0-3.12,1.81C-202.45,259.31-196.95,269.38-194.17,281.54Zm267.59.09A56.75,56.75,0,0,1,91.28,250.7c-16-6.89-31.33-13.56-46.75-20-1-.41-3.22.1-3.74.91-3.26,5.11-6.35,10.36-9.13,15.74-.48.94.31,3.36,1.27,4.1C46.16,261.44,59.52,271.3,73.42,281.63Zm-150.64,7.68c1.35-9.22,2.58-18.92,4.28-28.55.59-3.35-.36-5-3.36-6-1.74-.53-3.5-1-5.25-1.5-3.2-.9-5.32-.12-6.43,3.37-1.26,3.95-3,7.75-4.5,11.61l-6,15.25ZM-98.53,83.94c3.66,9.27,7.5,19.13,11.51,28.92a3.29,3.29,0,0,0,2.69,1.57,64.85,64.85,0,0,0,10-2.79,3.65,3.65,0,0,0,1.57-3.08c-1.4-10.33-3-20.62-4.46-30.32Zm76.3.06-21.28-5.83c-1.31,9-2.44,18.49-4.2,27.93-.75,4,.34,6,4,6.92a39.94,39.94,0,0,0,6.79,1.4c1,.07,2.81-.74,3.16-1.59C-29.7,103.06-25.87,93.2-22.23,84Zm-137.88,61.63c-2,7.39-3.92,14.17-5.88,21.28,8.87,1.29,18.31,2.23,27.52,4.19,5,1.06,6.62-1.2,7.75-5a15.3,15.3,0,0,0,.94-5.36c-.12-1.35-1-3.33-2.11-3.79C-141.34,153-150.92,149.28-160.11,145.63Zm205.27,55c-9.83-1.47-20.15-3.05-30.49-4.51-.8-.11-2.31.37-2.49.91-1.24,3.72-2.83,7.52-2.93,11.32,0,1.29,3.81,2.92,6.07,4,3.45,1.61,7.07,2.88,10.63,4.26,4.71,1.84,9.43,3.65,13.47,5.21C41.38,214.61,43.18,208,45.16,200.65ZM-43.5,289.23l21.3-5.59c-3.38-8.57-7.07-17.43-10.31-26.45-1.37-3.81-3.42-5-7.09-3.8a35.59,35.59,0,0,0-6.49,2.36,4.32,4.32,0,0,0-1.83,3.43C-46.56,269.37-45,279.52-43.5,289.23Zm89.55-94.42V172.7c-8.21,1-16.58,2-25,2.94s-10.62,3.87-8.41,12.25c.36,1.37,2.09,3.17,3.38,3.35C26.06,192.63,36.12,193.67,46.05,194.81Zm-187.53-76.94,18.35,14.56c6.18,4.89,8,4.67,13-1.7,1-1.28,1.78-2.74,2.73-4.23l-19-24ZM5.6,102.54c-3.82,4.83-9.19,11.59-14.54,18.36-5,6.29-4.68,8.41,1.88,13.37,1.17.89,2.5,1.57,4,2.48L20.58,118Zm33.83,43.07c-9.33,3.7-19,7.5-28.67,11.45-.84.34-1.94,1.83-1.78,2.54.82,3.67,1.45,7.61,3.36,10.7.72,1.17,4.75.68,7.2.35,8.76-1.16,17.49-2.57,25.58-3.78C43.17,159.61,41.39,153,39.43,145.61ZM-126.3,264.92c3.73-4.7,9.18-11.56,14.62-18.43,4.83-6.1,4.67-7.79-1.39-12.72a51.66,51.66,0,0,0-4.57-3l-24,19Zm146.89-15.4L-5.28,229.07c-2.33,3.33-4.67,6.36-6.63,9.62-.6,1-.75,3-.12,3.86,6.32,8.27,12.84,16.39,17.55,22.33Zm-187.38-54.69c10.11-1.18,20.46-2.37,30.8-3.67a3.46,3.46,0,0,0,2.24-1.62c3.48-6.27,0-13.09-6.91-13.79-1.49-.15-3-.39-4.45-.56l-21.68-2.42Zm6.57,27.1c8.58-3.38,17.57-7.12,26.72-10.45,3.63-1.32,4.57-3.39,3.54-6.77a40.27,40.27,0,0,0-2.29-6.52c-.47-.95-2-2.15-2.84-2-10.45,1.39-20.87,3-30.78,4.5Zm110.88,68.25c-1.13-10-2.24-20-3.46-30-.13-1-.93-2.78-1.51-2.82-3.92-.29-8-.72-11.73.07-1.17.25-1.68,4.11-2.28,6.38A35,35,0,0,0-69,268.7c-.81,7.32-1.61,14.64-2.37,21.48ZM-71.42,77.36C-70.24,87.47-69,98-67.75,108.46c.07.58.6,1.56,1,1.59,3.91.27,7.92.9,11.69.24,1.21-.21,2-3.91,2.62-6.11a33.5,33.5,0,0,0,.73-5.42c.8-7.3,1.6-14.6,2.34-21.4Zm54.62,204,19.19-11c-5.92-8-12.11-16.36-18.46-24.65a3.63,3.63,0,0,0-3.3-1,48.84,48.84,0,0,0-8.57,4.85,4.12,4.12,0,0,0-.84,3.79C-24.86,262.86-20.71,272.27-16.8,281.31ZM-104,86.2l-19.16,11c5.65,7.59,11.63,15.36,17.27,23.37,2,2.81,4,3.13,6.66,1.64a35.12,35.12,0,0,0,6.22-4,4.29,4.29,0,0,0,1.13-3.76C-95.83,104.76-100.06,95.22-104,86.2Zm87.49-.64c-4.22,9.7-8.43,19.24-12.46,28.88a3.69,3.69,0,0,0,.84,3.38,53.31,53.31,0,0,0,8.52,5,3.63,3.63,0,0,0,3.36-.78c6.44-8.39,12.71-16.92,19-25.35C-1,95-4.33,93.9-7.32,92.17S-13.19,88-16.48,85.56Zm53.7,141.82c-8.66-3.75-17.7-7.5-26.57-11.62C7.52,214.3,5.58,215,4,217.65A34.33,34.33,0,0,0,.7,224.29a4.23,4.23,0,0,0,.89,3.77c8.27,6.38,16.69,12.56,24.61,18.45C29.91,240.08,33.42,234,37.22,227.38ZM-147,246.5l20.21-15c6.83-5.05,7.1-9.36.78-15.24-.82-.76-2.52-1.53-3.35-1.19-9.78,4.06-19.48,8.33-28.57,12.27Zm.09-125.44L-158,140.14c9,3.92,18.58,8.14,28.22,12.12a4.15,4.15,0,0,0,3.75-1.07,29.59,29.59,0,0,0,4.45-7.66,5,5,0,0,0-1.34-4.47C-130.88,132.84-139.08,126.88-146.9,121.06Zm23.81,149.25,19.1,11.06c3.75-8.63,7.51-17.67,11.62-26.54,1.44-3.1.8-5.08-1.87-6.63a43.62,43.62,0,0,0-7.1-3.48,3.75,3.75,0,0,0-3.32,1C-111,254-117.19,262.38-123.09,270.31ZM26.17,121.05c-7.92,5.89-16.32,12.09-24.64,18.42A3.78,3.78,0,0,0,.4,142.36c.75,7.73,6.17,11.07,13,8.14,1.53-.66,3.06-1.3,4.58-2l19.17-8.4Zm-87.11,46.6,1.13,0q3.08-26.5,6.15-53.09H-67.09C-65,132.42-63,150-60.94,167.65ZM8.82,177l-53.1,6.2.09,1.12,53,6.1ZM-53.64,253c-2.08-17.87-4.14-35.5-6.2-53.14l-1.09.05Q-64,226.38-67.08,253ZM-129.56,177v13.47l53.13-6.21,0-1.09ZM-36,248.82q-9.8-24.65-19.56-49.24l-1.14.36c2.57,17.48,5.15,35,7.71,52.32ZM-84.77,118.7c6.57,16.56,13.08,33,19.6,49.39l1.1-.3q-3.84-26.25-7.69-52.53Zm28.11,48.94,1.16.32L-36,118.75l-13-3.52Zm-15.09,84.7c2.58-17.7,5.11-35.1,7.65-52.5l-1.15-.24c-6.51,16.43-13,32.86-19.48,49.17Zm-17.37-5.25q10.52-24.43,21-48.69l-1.07-.52-31.5,42.34Zm20-77.28,1-.59-21.06-48.68-11.62,6.75Zm16.47-.63,1.1.51L-20,127.31l-11.59-6.84Q-42.14,144.88-52.63,169.18Zm-72.8,39,49.26-19.56-.36-1.12-52.34,7.71C-127.67,199.72-126.62,203.67-125.43,208.15Zm81-20.69-.31,1.1L4.66,208.13l3.52-13ZM8.17,172.39c-1.2-4.47-2.26-8.43-3.49-13L-44.68,179l.33,1.09ZM-123.69,155-75,176c.18-.35.35-.7.53-1.06l-42.35-31.49C-119.09,147.25-121.18,150.78-123.69,155Zm47.3,25.06.28-1.11-49.3-19.55c-1.24,4.6-2.33,8.67-3.49,13Zm72.5,44.08,6.78-11.63-48.77-21-.55,1Zm-113,0,42.53-31.67-.59-1-48.64,21Zm65.22-26.5-1,.56L-31.62,247-20,240.26Zm-61.59-57.45L-73,172.1l.93-.95-31.82-40.21Zm65.53,55.24-1,1,31.56,39.85,9.47-9.11Zm-65.21,31.59c3.26,3.32,6.2,6.34,9.2,9.4L-72,196.35l-1-.88Zm66.68-52.14.47,1.1L2.85,155l-6.72-11.65Zm-2.42-3.78,1,.91L-7.4,140.16-16.92,131Z" transform="translate(560.37 316.23)"/><path d="M-277.37-316.23c7.41,17.45,14.75,34.94,22.23,52.36q17.07,39.69,34.36,79.28c1.44,3.26,1.08,5.34-1.23,7.9-18.78,20.84-41.76,34.35-69.21,40.23-3,.65-5.36.69-7.69-2.46q-56-75.74-112.35-151.26c-.59-.79-1.13-1.63-2.09-3l9.35-1.95a186.92,186.92,0,0,0,51.82-19.07,28.58,28.58,0,0,0,2.81-2Z" transform="translate(560.37 316.23)"/><path d="M439.63-33.23C422-25.76,404.39-18.35,386.82-10.8Q347.13,6.27,307.53,23.55c-2.86,1.25-4.75,1-7.06-1.08-21.06-18.81-34.69-41.92-40.62-69.54-.65-3-.68-5.36,2.45-7.68q76.15-56.32,152.08-112.94c.53-.39,1.11-.71,2.22-1.43,1,4.75,1.91,9.2,3,13.61,4.27,17.72,10.26,34.76,20.05,50.28Z" transform="translate(560.37 316.23)"/><path d="M-560.37,400.77c14.7-6.23,29.42-12.39,44.08-18.7q44.05-18.94,88-38.08c2.85-1.25,4.76-1,7.06,1.08,21.07,18.81,34.69,41.92,40.63,69.54.65,3.05.67,5.36-2.47,7.68q-76,56.16-151.67,112.64c-.66.49-1.35,1-2.6,1.82-1.08-5-2-9.63-3.08-14.19-4.33-17.53-10.24-34.43-20-49.79Z" transform="translate(560.37 316.23)"/><path d="M439.63,472.77c-10.54,16.48-16.73,34.66-21,53.6-.73,3.23-1.3,6.5-2.08,10.42-5.32-3.92-10.23-7.5-15.11-11.13q-68.57-51-137.21-101.86c-4.15-3.06-5.18-5.84-4-10.75,6.23-26.59,19.17-49.12,39.47-67.46,2.69-2.43,4.84-2.9,8.32-1.38q63.62,27.74,127.39,55.12c1.36.59,2.8,1,4.21,1.44Z" transform="translate(560.37 316.23)"/><path d="M-560.37-105.23c10.52-16.48,16.73-34.65,21-53.6.72-3.23,1.3-6.49,2.08-10.42,5.33,3.92,10.24,7.5,15.12,11.13q68.57,51,137.2,101.86c4.15,3.07,5.16,5.85,4,10.75-6.16,26.42-19,48.82-39.07,67.13-2.94,2.69-5.28,3.2-9.16,1.51-42.09-18.39-84.29-36.52-126.48-54.7-1.51-.66-3.1-1.11-4.66-1.66Z" transform="translate(560.37 316.23)"/><path d="M228.63-316.23c15.29,9.83,32.15,15.8,49.68,20.07,4.51,1.1,9.09,1.93,14.34,3-1.82,2.49-3.33,4.58-4.87,6.66q-54,72.56-107.83,145.2c-3.31,4.48-6.26,5.58-11.54,4.31-26.38-6.32-48.75-19.2-67-39.35-2.45-2.71-2.89-4.86-1.38-8.32q27.72-63.63,55.1-127.4c.59-1.36,1-2.8,1.47-4.2Z" transform="translate(560.37 316.23)"/><path d="M152.63,674.77c-5.72-13.64-11.36-27.31-17.19-40.91Q117.91,593,100.13,552.27c-1.37-3.13-1.4-5.24,1-7.93C119.92,523.5,142.88,510,170.3,504c3.63-.79,5.94-.13,8.35,3.14q55.42,74.94,111.14,149.67c.87,1.17,1.66,2.4,1.84,2.66l-45,15.31Z" transform="translate(560.37 316.23)"/><path d="M-367.37,674.77c-11.9-4-23.78-8.08-35.73-11.95-3.13-1-6.47-1.35-10.34-2.12,7.36-9.92,14.38-19.39,21.41-28.84q46.36-62.36,92.67-124.75c2.21-3,4.35-3.92,7.92-3.13,27.32,6.07,50.56,19.09,69.36,40,2.52,2.79,2.67,5,1.2,8.35q-25.6,58.83-50.91,117.8c-.65,1.5-1.06,3.1-1.58,4.66Z" transform="translate(560.37 316.23)"/><path d="M-135.37-316.23q5,33.08,9.92,66.14c1.84,12.34,3.48,24.72,5.52,37,.52,3.17-.29,4.85-2.85,6.52-23.75,15.56-49.73,22.71-78.1,21.26-3.46-.18-5.2-1.45-6.51-4.77q-24.84-63.15-50-126.18Z" transform="translate(560.37 316.23)"/><path d="M136.63-316.23q-25,63.08-50,126.18c-1.2,3-2.7,4.51-6,4.67C52.27-184,26.15-190.6,2.36-206.21c-2.93-1.92-3.62-3.86-3.09-7.35,5-32.9,9.71-65.84,14.54-98.77.19-1.31.54-2.6.82-3.9Z" transform="translate(560.37 316.23)"/><path d="M-560.37-13.23q63.07,25,126.17,50c3,1.19,4.51,2.64,4.68,6,1.4,28.32-5.22,54.44-20.82,78.23-1.91,2.92-3.85,3.62-7.35,3.09-32.9-5-65.85-9.72-98.78-14.54-1.31-.19-2.6-.54-3.9-.82Z" transform="translate(560.37 316.23)"/><path d="M439.63,380.77q-63.08-25-126.17-50c-3-1.19-4.51-2.64-4.68-6-1.41-28.32,5.23-54.44,20.81-78.24,1.91-2.92,3.85-3.61,7.35-3.08,32.91,5,65.85,9.71,98.79,14.54,1.31.19,2.6.54,3.9.82Z" transform="translate(560.37 316.23)"/><path d="M439.63,108.77q-33.08,5-66.14,9.92c-12.35,1.84-24.72,3.51-37,5.49-2.83.46-4.55.11-6.23-2.42a127.07,127.07,0,0,1-21.49-79.51c.2-3.38,2.1-4.39,4.75-5.44q63.09-25,126.15-50Z" transform="translate(560.37 316.23)"/><path d="M-560.37,258.77q33.07-5,66.14-9.92c12.35-1.84,24.72-3.51,37-5.5,2.84-.46,4.56-.09,6.22,2.43a126.82,126.82,0,0,1,21.49,79.51c-.2,3.38-2.1,4.39-4.74,5.43q-63.11,25-126.15,50Z" transform="translate(560.37 316.23)"/><path d="M-253.37,674.77c4.61-11.93,9.15-23.89,13.84-35.78,10.68-27.08,21.5-54.11,32.09-81.23,1.27-3.27,2.94-4.7,6.43-4.86,28.13-1.3,54.11,5.26,77.76,20.77,2.82,1.85,3.84,3.62,3.28,7.26-4.56,29.6-8.83,59.25-13.15,88.89a48,48,0,0,0-.25,4.95Z" transform="translate(560.37 316.23)"/><path d="M12.63,674.77c-1.77-13.18-3.45-26.36-5.33-39.52-2.63-18.46-5.49-36.88-8-55.34a6.45,6.45,0,0,1,2.17-5.2q36.15-24.57,79.84-21.62A6.53,6.53,0,0,1,86,556.44q23.43,58.37,46.51,116.85a6,6,0,0,1,.17,1.48Z" transform="translate(560.37 316.23)"/><path d="M439.63,240.77c-33.7-4-67.4-8-101.12-11.81-3.41-.39-4.85-1.69-5.85-4.77-8.67-26.81-9-53.57-.24-80.44,1.15-3.54,2.88-4.8,6.58-5.21,33.56-3.79,67.09-7.81,100.63-11.77Z" transform="translate(560.37 316.23)"/><path d="M-560.37,126.77c33.7,4,67.4,8,101.12,11.84,3,.35,4.71,1.24,5.7,4.26,8.85,27.13,9.19,54.21.2,81.38-1,3.11-2.53,4.32-5.9,4.7-33.72,3.81-67.42,7.85-101.12,11.82Z" transform="translate(560.37 316.23)"/><path d="M-3.37-316.23q-6,50.55-11.87,101.11c-.31,2.67-.77,4.52-3.78,5.52-27.25,9.07-54.49,9.42-81.83.39-3.08-1-4.33-2.52-4.71-5.91-3.8-33.72-7.84-67.41-11.81-101.11Z" transform="translate(560.37 316.23)"/><path d="M439.63-213.23c-7.49,5.8-15.07,11.49-22.43,17.45-2.26,1.83-4,2.09-6.65.85-41.35-19.43-72.05-49.57-91.8-90.83-1.6-3.35-1.63-5.79,1-8.87,5.92-7,11.29-14.37,16.89-21.6h103Z" transform="translate(560.37 316.23)"/><path d="M-457.37-316.23c5.8,7.49,11.5,15.06,17.45,22.43,1.82,2.26,2.1,4,.85,6.68-19.65,41.63-50,72.57-91.79,92.13-2.76,1.3-4.64,1.22-7.09-.78-7.33-6-14.93-11.66-22.42-17.46v-103Z" transform="translate(560.37 316.23)"/><path d="M-116.37,674.77c3.64-30.76,7.35-61.52,10.84-92.3.36-3.19,1.6-4.6,4.47-5.54,27-8.86,53.94-9.13,81-.25,3.3,1.08,4.53,2.75,4.93,6.29,3.45,30.62,7.15,61.2,10.78,91.8Z" transform="translate(560.37 316.23)"/><path d="M-560.37,580.77c7.5-5.8,15.07-11.49,22.44-17.46,2.26-1.83,4-2.07,6.65-.83,41.51,19.55,72.35,49.77,92,91.35,1.44,3,1.44,5.28-.95,8-3.64,4.09-6.77,8.63-10.12,13h-110Z" transform="translate(560.37 316.23)"/><path d="M329.63,674.77c-3.45-4.48-6.78-9.06-10.41-13.39-1.83-2.19-2.18-4-.92-6.66,19.54-41.51,49.78-72.34,91.33-92,3-1.44,5.2-1.43,8,.88,7.14,6,14.65,11.48,22,17.17v94Z" transform="translate(560.37 316.23)"/><path d="M-376.37-316.23c-10.41,3.58-20.65,7.77-31.27,10.57-13,3.42-13.09,2.91-21.1-8.09-.58-.8-1.09-1.65-1.63-2.48Z" transform="translate(560.37 316.23)"/><path d="M439.63-132.23c-3.58-10.4-7.77-20.65-10.58-31.26-3.43-13-2.93-13.11,8.09-21.13.8-.59,1.66-1.08,2.49-1.61Z" transform="translate(560.37 316.23)"/><path d="M-560.37,499.77c3.5,10.09,7.58,20,10.35,30.29,3.75,13.9,3.32,14-8.26,22.39-.67.49-1.39.88-2.09,1.32Z" transform="translate(560.37 316.23)"/><path d="M439.63,553.77c-1-.63-2-1.22-2.88-1.9-10.53-7.71-11-7.84-7.67-20.31,2.88-10.77,7-21.21,10.55-31.79Z" transform="translate(560.37 316.23)"/><path d="M309.63-316.23c-.54.82-1.05,1.67-1.63,2.47-8,11.07-8.14,11.46-21.53,7.83-10.44-2.84-20.57-6.82-30.84-10.3Z" transform="translate(560.37 316.23)"/><path d="M-560.37-186.23c.83.53,1.69,1,2.49,1.6,11,8,11.43,8.14,7.8,21.57-2.83,10.44-6.82,20.56-10.29,30.83Z" transform="translate(560.37 316.23)"/><path d="M281.63,674.77c5.56-1.24,11.09-2.75,16.72-3.52,1.24-.17,2.84,2.28,4.28,3.52Z" transform="translate(560.37 316.23)"/><path d="M-423.37,674.77c.84-3,2.53-4.26,5.8-3.36,4.69,1.28,9.46,2.25,14.2,3.36Z" transform="translate(560.37 316.23)"/><path d="M309.15-280.65c20,43.34,51.14,75.08,94.91,95-1.65,1.37-3,2.53-4.36,3.63Q326.82-124.34,254-66.59c-2.72,2.15-4.8,2.62-8,1-25.09-12.9-44.26-31.65-57-56.89-1.41-2.78-1.6-4.83.59-7.58Q247.89-203.43,306-277C306.86-278.12,307.87-279.18,309.15-280.65Z" transform="translate(560.37 316.23)"/><path d="M-429.74-280.8c10.06,12.68,19.67,24.79,29.26,36.91q44.81,56.63,89.68,113.21c2.32,2.92,2.57,5.11.88,8.39-12.94,25.09-31.78,44.16-57,56.85-2.67,1.34-4.59,1.34-7.13-.68q-73.76-58.59-147.69-117c-.89-.71-1.73-1.49-3-2.62C-481.5-205.73-449.77-236.86-429.74-280.8Z" transform="translate(560.37 316.23)"/><path d="M-429.89,648.18c-20-43.31-51.13-75.07-94.92-95,1.51-1.27,2.69-2.33,3.94-3.31q73.08-57.84,146.13-115.73c2.68-2.13,4.77-2.68,8-1,25.09,12.9,44.26,31.64,57,56.88,1.4,2.78,1.62,4.84-.57,7.59Q-368.76,571.16-427,644.89C-427.81,645.9-428.71,646.84-429.89,648.18Z" transform="translate(560.37 316.23)"/><path d="M404.07,553.27c-43.49,20.1-75.16,51.3-95.06,95-1.9-2.34-3.46-4.23-5-6.16Q246.95,570,189.83,497.94c-2-2.58-2.47-4.56-1-7.55,12.92-25.29,31.79-44.56,57.22-57.34,2.59-1.3,4.54-1.55,7.15.52q74.14,58.92,148.47,117.6C402.36,551.67,402.93,552.25,404.07,553.27Z" transform="translate(560.37 316.23)"/><path d="M323.9,241.88c-17.4,25.56-25.08,53.07-22.47,83.95-8.25-3.24-16.08-6.27-23.89-9.37-30.17-12-60.3-24-90.54-35.81-3.93-1.53-5.23-3.67-5.31-7.7a82.17,82.17,0,0,1,12.7-46.52c1.77-2.81,3.65-3.43,6.94-2.93,39.52,5.92,79.07,11.65,118.6,17.44C321.06,241.11,322.17,241.46,323.9,241.88Z" transform="translate(560.37 316.23)"/><path d="M244.28,425.77c-28.58,13.68-49.1,33.74-62.22,61.71-1.08-1.17-2-2.06-2.8-3.05q-36.91-46.62-73.9-93.19c-2.49-3.12-2.71-5.4-.86-8.8,8.18-15.09,19.58-26.86,35.05-34.4a7,7,0,0,1,6.06.6q48,37.61,95.73,75.52A25.89,25.89,0,0,0,244.28,425.77Z" transform="translate(560.37 316.23)"/><path d="M81.79-178.09,62-128.22c-8.66,21.81-17.36,43.6-25.9,65.46-1.12,2.87-2.53,4.25-5.71,4.38-17.3.68-33.32-3.28-48-12.59-2.78-1.76-3.52-3.55-3-6.9C-14.7-117.55-9-157.26-3.15-197c.14-1,.44-1.91.82-3.52C23-183.25,50.58-175.35,81.79-178.09Z" transform="translate(560.37 316.23)"/><path d="M-365.36-58.09c29.07-13.94,49.44-34,62.55-61.83,1.06,1.14,2,2,2.77,3q37.08,46.82,74.21,93.6c2.2,2.76,2.46,4.84.82,7.93C-233.12,0-244.65,11.83-260.26,19.49a7,7,0,0,1-6.06-.57q-48.18-37.77-96.13-75.84A15.22,15.22,0,0,0-365.36-58.09Z" transform="translate(560.37 316.23)"/><path d="M-444.67,125.71c17.45-25.54,25.12-53.19,22.52-84L-385,56.38c25.69,10.18,51.34,20.43,77.09,30.44,3.8,1.48,5.42,3.4,5.5,7.56a82.71,82.71,0,0,1-12.3,46.14c-1.88,3.06-3.8,4.08-7.64,3.5-39.51-6-79.06-11.67-118.6-17.46C-441.95,126.42-442.9,126.12-444.67,125.71Z" transform="translate(560.37 316.23)"/><path d="M182.14-119.92c13.23,27.68,33.23,48.08,61.21,61.28-1.28,1.15-2.26,2.15-3.34,3q-46.63,36.92-93.23,73.88c-2.7,2.14-4.74,2.59-7.91.91C123.51,11.05,111.63-.46,103.92-16a6.92,6.92,0,0,1,.51-6.07q37.92-48.37,76.19-96.49A12.84,12.84,0,0,1,182.14-119.92Z" transform="translate(560.37 316.23)"/><path d="M-118.5,568c-25.55-17.38-53.05-25.08-84-22.41,3.12-7.88,6-15.23,8.94-22.58q18.3-46.18,36.56-92.39c1.17-3,2.53-4.61,6-4.73,17.31-.62,33.34,3.3,48,12.72,2.21,1.43,3.54,2.71,3.05,5.94-6,40-11.79,80-17.65,120.07A33,33,0,0,1-118.5,568Z" transform="translate(560.37 316.23)"/><path d="M-302.87,487.47c-13.18-27.66-33.28-48.15-61.39-61.39,3.42-2.76,6.47-5.26,9.57-7.71q43.69-34.59,87.35-69.22c2.57-2,4.5-2.47,7.5-.89,15.38,8.06,27.3,19.53,35.07,35.09.81,1.63.8,4.76-.24,6.09Q-262.93,437.83-301.2,486A16.26,16.26,0,0,1-302.87,487.47Z" transform="translate(560.37 316.23)"/><path d="M-103.67-202.43c28.85,10.16,57.4,10.48,86.76,0-.52,5-.94,9.52-1.46,14C-22.61-152-26.92-115.62-31-79.21c-.36,3.14-1.52,4.63-4.45,5.56C-52-68.41-68.58-68-85.08-73.56c-1.75-.58-4-2.72-4.23-4.36-4.94-40.68-9.63-81.39-14.35-122.1C-103.73-200.64-103.67-201.28-103.67-202.43Z" transform="translate(560.37 316.23)"/><path d="M-373.19,414.23c-5.62-30-19.69-55-43.46-75.08,6.82-3,13.13-5.75,19.45-8.48,31.32-13.53,62.67-27,93.93-40.66,3.26-1.43,5.38-1.13,7.92,1.24,12.57,11.68,21,25.72,24.51,42.56.38,1.83-.33,4.91-1.66,5.91q-49.32,37.06-98.94,73.76A9.77,9.77,0,0,1-373.19,414.23Z" transform="translate(560.37 316.23)"/><path d="M170.25,496.59C140,502.17,115,516.38,95,540.09L83.52,513.6q-18.84-43.55-37.73-87.07c-1.3-3-1.23-5,1.08-7.52a81.22,81.22,0,0,1,42.92-24.95c2.68-.6,4.55-.24,6.38,2.23q36.1,48.82,72.41,97.5C169.15,494.57,169.58,495.45,170.25,496.59Z" transform="translate(560.37 316.23)"/><path d="M252.44-46.89c5.71,30.34,19.77,55.21,43.31,75.12-1.79.9-3.15,1.67-4.58,2.29q-54.3,23.48-108.59,47c-3.23,1.41-5.36,1.22-7.93-1.18A80.91,80.91,0,0,1,150,33.82c-.57-2.57-.56-4.56,2-6.46Q201.2-9,250.25-45.61C250.77-46,251.36-46.26,252.44-46.89Z" transform="translate(560.37 316.23)"/><path d="M-17.49,569.83c-28.56-10-57.09-10.31-86.41.17.91-8.23,1.71-15.89,2.61-23.53,3.87-33.22,7.81-66.43,11.59-99.66.35-3.06,1.36-4.65,4.37-5.6,16.69-5.31,33.37-5.63,50,0,1.63.55,3.71,2.56,3.9,4.1,4.94,41.13,9.67,82.29,14.42,123.45C-17,568.89-17.13,569-17.49,569.83Z" transform="translate(560.37 316.23)"/><path d="M-215.7-172.59c8.72,20.19,17.15,39.75,25.6,59.3,7.8,18,15.52,36.09,23.48,54.05,1.41,3.19,1.28,5.34-1.15,8-11.69,12.56-25.73,21-42.52,24.69-2.54.56-4.54.67-6.47-1.94q-36.37-49.24-73-98.31c-.38-.52-.66-1.11-1.29-2.15C-260.92-134.64-235.9-148.69-215.7-172.59Z" transform="translate(560.37 316.23)"/><path d="M81.29,545.62c-30.4-2.44-58.2,4.75-83.78,22.51-1.6-10.57-3.15-20.55-4.61-30.55-4.52-30.81-8.93-61.64-13.59-92.43-.46-3,.3-4.6,2.66-6.12,14.88-9.58,31.08-14.28,48.8-13a6.47,6.47,0,0,1,4.68,3.22q23,57.24,45.59,114.62A9.15,9.15,0,0,1,81.29,545.62Z" transform="translate(560.37 316.23)"/><path d="M-215.94,539.94c-20-23.44-44.77-38-75.34-43.49,9-12.12,17.61-23.73,26.24-35.33,15.8-21.26,31.68-42.46,47.36-63.81,2.23-3,4.26-3.71,7.9-2.86,16.74,3.9,31,11.86,42.36,24.82,1.19,1.35,1.84,4.39,1.16,6q-24.09,56.49-48.6,112.83A20.89,20.89,0,0,1-215.94,539.94Z" transform="translate(560.37 316.23)"/><path d="M325.77,140.65c-10.09,28.72-10.42,57.25.09,86.6-5-.53-9.54-1-14-1.48-36.52-4.26-73-8.58-109.57-12.71-3-.35-4.28-1.57-5.14-4.26-5.37-16.67-5.68-33.37-.09-50,.57-1.7,2.85-3.8,4.55-4,40.79-4.94,81.62-9.65,122.44-14.39A13.15,13.15,0,0,1,325.77,140.65Z" transform="translate(560.37 316.23)"/><path d="M295.7,339.38c-23.17,19.83-37.82,44.55-43.32,75.05-1.52-1-2.77-1.74-3.92-2.6q-47.52-35.32-95.09-70.58c-3.22-2.38-3.92-4.51-3-8.3,3.9-16.54,11.78-30.71,24.56-42,1.38-1.22,4.39-2.08,5.93-1.42,37.82,16.11,75.54,32.46,113.27,48.77A13,13,0,0,1,295.7,339.38Z" transform="translate(560.37 316.23)"/><path d="M-118.24-200.64c2,13,3.82,25.19,5.6,37.36,4.18,28.51,8.24,57,12.57,85.51.49,3.22-.39,4.87-2.92,6.48-14.78,9.4-30.84,14-48.37,12.87-1.7-.11-4.19-1.62-4.78-3.1Q-179.21-119-201.9-176.6a6.76,6.76,0,0,1-.08-1.47C-171.73-175.69-143.92-182.73-118.24-200.64Z" transform="translate(560.37 316.23)"/><path d="M-446.49,226.75c10.13-28.76,10.34-57.29-.11-86.52,8.27.91,16,1.72,23.64,2.62,33.21,3.88,66.42,7.84,99.65,11.6,3.15.36,4.6,1.53,5.53,4.46,5.28,16.7,5.59,33.38-.05,50-.54,1.6-2.62,3.61-4.18,3.8-41,4.94-81.95,9.66-122.94,14.41A7.3,7.3,0,0,1-446.49,226.75Z" transform="translate(560.37 316.23)"/><path d="M-416.45,28.18c23.13-19.85,37.86-44.53,43.3-75,1.38.86,2.51,1.46,3.52,2.21Q-321.71-9-273.75,26.59c2.86,2.12,3.56,4.06,2.77,7.48-3.83,16.74-11.75,31.08-24.65,42.46-1.39,1.23-4.4,2.1-5.94,1.45Q-358.28,53.8-414.83,29.2A13.71,13.71,0,0,1-416.45,28.18Z" transform="translate(560.37 316.23)"/><path d="M324,125.9c-10.58,1.58-20.43,3.09-30.28,4.54-30.81,4.51-61.64,8.93-92.42,13.61-3.43.52-5.13-.49-6.83-3.18-9.27-14.66-13.83-30.57-12.68-47.92.12-1.79,1.8-4.4,3.39-5q57.22-23,114.6-45.6a12.73,12.73,0,0,1,1.6-.25C299.13,72.3,306.1,100.09,324,125.9Z" transform="translate(560.37 316.23)"/><path d="M-444.8,241.64c12.77-1.91,24.76-3.74,36.76-5.5,28.67-4.2,57.35-8.32,86-12.63,3.06-.46,4.86.1,6.55,2.76,9.41,14.78,14.08,30.82,12.92,48.35a7,7,0,0,1-3.44,5q-57.21,23-114.6,45.58a10.82,10.82,0,0,1-1.56.22C-419.87,295.21-426.84,267.41-444.8,241.64Z" transform="translate(560.37 316.23)"/><path d="M95.17-172.43c20,23.37,44.6,37.92,75.11,43.44-1.06,1.61-1.83,3-2.75,4.18Q132.19-77.28,96.91-29.72c-2.27,3.08-4.35,3.63-7.92,2.79-16.73-3.9-31-11.86-42.34-24.84a7,7,0,0,1-1.12-6Q69.52-114,93.9-170.13C94.16-170.74,94.54-171.3,95.17-172.43Z" transform="translate(560.37 316.23)"/><path d="M89.33,388.12c-19,3.79-34.93,12.69-47.94,27.9-4.53-10.45-8.8-20.29-13-30.13-6-13.89-11.9-27.83-18-41.65-1.22-2.74-1-4.46,1.08-6.56,7.26-7.5,15.8-12.71,26.06-14.76,1.55-.31,4.14.36,5,1.52C58,345,73.34,365.75,88.71,386.46A7.63,7.63,0,0,1,89.33,388.12Z" transform="translate(560.37 316.23)"/><path d="M-210.66-20.47c19.61-3.92,35.57-12.81,48.53-28,6.19,14.31,12.09,28,18,41.64,4.35,10.08,8.57,20.22,13.12,30.21,1.26,2.75.89,4.47-1.12,6.55-7.13,7.39-15.56,12.51-25.59,14.66-1.69.36-4.55-.27-5.47-1.49C-179,22.23-194.51,1.23-210.66-20.47Z" transform="translate(560.37 316.23)"/><path d="M-312.26,211.26a81.42,81.42,0,0,0-.11-55.46c12.79,1.45,25,2.81,37.2,4.22,13.56,1.57,27.13,3.08,40.65,4.94a6.91,6.91,0,0,1,4.72,3.76,46.42,46.42,0,0,1,.13,29.91c-.53,1.62-2.57,3.69-4.12,3.88-25.6,3.18-51.24,6.1-76.87,9.06A7.35,7.35,0,0,1-312.26,211.26Z" transform="translate(560.37 316.23)"/><path d="M191.52,156.2c-6.31,18.44-6.59,36.74.14,55.52-10.06-1.12-19.63-2.16-29.18-3.27-16-1.87-32.06-3.91-48.12-5.57-3.44-.36-4.87-1.7-5.74-4.85-2.67-9.73-2.86-19.42.27-29,.53-1.64,2.52-3.78,4-4,25.44-3.18,50.91-6.1,76.37-9A12.43,12.43,0,0,1,191.52,156.2Z" transform="translate(560.37 316.23)"/><path d="M-88-68.13c18.43,6.35,36.73,6.55,55.55-.09-1.12,10-2.16,19.58-3.27,29.13C-37.55-23-39.57-7-41.27,9c-.33,3.09-1.3,4.73-4.35,5.6a49.79,49.79,0,0,1-30-.27c-1.48-.49-3.34-2.43-3.52-3.88-3.16-25.45-6.08-50.93-9-76.4A12.12,12.12,0,0,1-88-68.13Z" transform="translate(560.37 316.23)"/><path d="M-209.76,386.87c5.92-8,12.22-16.54,18.55-25.05,9-12.15,18.14-24.25,27.09-36.46,1.67-2.29,3.25-3.3,6.19-2.56,10.11,2.55,18.91,7.32,25.87,15.12,1.07,1.2,1.93,3.77,1.38,5.06-10.24,24.17-20.71,48.24-31,71.94-7.38-5.72-14.2-12.17-22.09-16.79S-200.66,390.71-209.76,386.87Z" transform="translate(560.37 316.23)"/><path d="M-32.63,435.7c-18.52-6.35-36.81-6.58-55.68.05,1.11-10,2.14-19.52,3.25-29,1.88-16.21,3.91-32.4,5.62-48.62.32-3,1.48-4.36,4.23-5.16,9.86-2.86,19.73-3.1,29.5.09,1.71.56,3.89,2.77,4.1,4.45,3.17,25.1,6,50.25,9,75.39A25.81,25.81,0,0,1-32.63,435.7Z" transform="translate(560.37 316.23)"/><path d="M171.92,285.55A82.68,82.68,0,0,0,143.83,334c-6-4.43-11.44-8.44-16.87-12.48-15.23-11.32-30.42-22.69-45.7-33.93-2.25-1.66-3.38-3.21-2.62-6.18,2.57-10.1,7.28-18.94,15.11-25.87,1.27-1.12,4.07-1.85,5.51-1.24C123.28,264.44,147.21,274.85,171.92,285.55Z" transform="translate(560.37 316.23)"/><path d="M-292.64,285.54l29.8-12.88c13.89-6,27.84-11.87,41.63-18.1,3.19-1.44,5.1-.92,7.39,1.37,7.13,7.12,12.18,15.4,14.24,25.28.35,1.68-.34,4.52-1.58,5.46C-222,302.42-243,318-264.57,334-268.49,314.66-277.36,298.52-292.64,285.54Z" transform="translate(560.37 316.23)"/><path d="M143.91,33.47C147.73,53.16,156.79,69,171.85,82l-25.61,11C131,99.68,115.65,106.16,100.48,113c-3.18,1.43-5.1,1-7.4-1.35C86,104.5,80.9,96.21,78.84,86.33c-.35-1.68.34-4.51,1.58-5.45C101.25,65.12,122.25,49.58,143.91,33.47Z" transform="translate(560.37 316.23)"/><path d="M41.39-48.51c13.15,15,28.76,24.26,48.17,28-1.1,1.69-1.88,3-2.8,4.28C72.37,3.11,57.91,22.42,43.64,41.87c-2,2.68-3.77,3.63-7,2.75C26.74,42,18.08,37.25,11.26,29.56,10.2,28.37,9.41,25.79,10,24.48,20.21.33,30.67-23.72,41.39-48.51Z" transform="translate(560.37 316.23)"/><path d="M-292.64,82c15.07-13.09,24.26-28.88,28.06-48.46l9.6,7.13c17.49,13,34.92,26.1,52.54,38.94,3.12,2.28,3.72,4.44,2.72,7.93C-202.43,97-207,105.43-214.44,112c-1.28,1.13-4.06,1.94-5.49,1.33C-244,103.14-267.89,92.71-292.64,82Z" transform="translate(560.37 316.23)"/><path d="M-98.53,434.48c-16.65-11.15-34.14-16-53.71-14.59.46-1.59.7-2.82,1.15-4,9-22.75,18.08-45.48,27-68.27,1.21-3.11,2.89-4.3,6.21-4.31,10.28,0,19.82,2.33,28.39,8,1.23.82,2.6,2.87,2.42,4.14C-90.73,381.55-94.59,407.57-98.53,434.48Z" transform="translate(560.37 316.23)"/><path d="M-21.65-66.49c16,10.58,33.55,15.65,53.56,14.08L23.82-32C17-14.84,10.14,2.31,3.5,19.55,2.24,22.83.58,24.21-3,24.21c-10.27,0-19.82-2.37-28.37-8.12-1.2-.81-2.48-2.89-2.3-4.19C-30-14-26.06-39.82-22.21-65.67-22.19-65.81-22-65.93-21.65-66.49Z" transform="translate(560.37 316.23)"/><path d="M-258,25.13A81.71,81.71,0,0,0-218.86-14c1.24,1.41,2.26,2.47,3.17,3.62,15.1,19.07,30.13,38.17,45.31,57.16,1.93,2.42,2.39,4.34.82,7.09-5.08,8.91-11.85,16.09-21,20.7-1.53.76-4.44.8-5.68-.17-20.36-15.85-40.56-31.93-60.78-48A7.64,7.64,0,0,1-258,25.13Z" transform="translate(560.37 316.23)"/><path d="M175.74,92a82.67,82.67,0,0,0,14.5,53.52c-11.35,1.71-22,3.34-32.61,4.9-15,2.2-30,4.26-45,6.59-2.76.43-4.27-.21-5.68-2.53-5.43-8.93-8.27-18.54-7.58-29,.11-1.69,1.57-4.16,3-4.75,23.75-9.64,47.59-19,71.42-28.47A10.48,10.48,0,0,1,175.74,92Z" transform="translate(560.37 316.23)"/><path d="M-219,381.33c-8.52-17.39-21.27-30.5-39.38-39.14,5.8-4.61,11.22-8.93,16.65-13.23,14.89-11.78,29.82-23.49,44.62-35.38,2.32-1.87,4.12-2.11,6.66-.69,9.11,5.09,16.38,12,21,21.38.7,1.43.72,4.12-.18,5.27-15.88,20.35-31.94,40.54-48,60.76A7.46,7.46,0,0,1-219,381.33Z" transform="translate(560.37 316.23)"/><path d="M98.31-13.77a81.74,81.74,0,0,0,39.16,39.06c-1.46,1.25-2.59,2.29-3.79,3.24C114.63,43.62,95.52,58.64,76.55,73.84c-2.49,2-4.42,2.2-7.1.68-8.9-5.07-16.09-11.84-20.64-21.07-.75-1.53-.71-4.43.27-5.68C64.94,27.42,81,7.23,97.06-13A6.18,6.18,0,0,1,98.31-13.77Z" transform="translate(560.37 316.23)"/><path d="M-296.48,275.59c1.21-19.44-3.25-37.19-14.58-53.63,16.6-2.45,32.37-4.8,48.15-7.12,9.88-1.45,19.75-3,29.67-4.16a6.47,6.47,0,0,1,5.15,2.15,45.88,45.88,0,0,1,7.94,29.32,6.44,6.44,0,0,1-3.15,4.68c-23.59,9.57-47.28,18.9-71,28.27A16,16,0,0,1-296.48,275.59Z" transform="translate(560.37 316.23)"/><path d="M137.08,342.47a81.7,81.7,0,0,0-38.91,39c-1.17-1.28-2.18-2.25-3-3.34q-22.8-28.77-45.62-57.53c-1.79-2.24-2.29-4-.82-6.65,5.07-9.13,12-16.39,21.33-21.07,1.43-.71,4.14-.82,5.26.06,20.57,16.11,41,32.41,61.45,48.68C136.84,341.73,136.86,341.94,137.08,342.47Z" transform="translate(560.37 316.23)"/><path d="M-152.52-52c29.21-1.53,29.21-1.53,54-14.39,1.22,8.17,2.43,16.11,3.59,24.05,2.61,17.8,5.28,35.58,7.67,53.4a6.37,6.37,0,0,1-2.26,5.09A46.63,46.63,0,0,1-118.88,24c-1.5-.1-3.77-1.17-4.25-2.36C-133-2.68-142.63-27.12-152.52-52Z" transform="translate(560.37 316.23)"/><path d="M190.35,221.93c-11.18,16.71-16,34.21-14.56,54.08L168,272.93c-21.35-8.45-42.67-17-64.1-25.26-3.58-1.39-4.75-3.31-4.72-7,.08-10.09,2.46-19.47,8.08-27.88.81-1.22,2.9-2.52,4.19-2.33C137.49,214.14,163.49,218,190.35,221.93Z" transform="translate(560.37 316.23)"/><path d="M-22.19,434.34c-2.43-16.33-4.76-31.94-7.06-47.56-1.45-9.89-2.71-19.8-4.38-29.65-.5-2.95.14-4.59,2.65-6.09,9-5.36,18.57-8.23,29-7.52,1.59.11,3.94,1.4,4.48,2.74,9.69,23.91,19.15,47.91,28.63,71.91a6.42,6.42,0,0,1,.11,1.74C12,418.56-5.73,423.27-22.19,434.34Z" transform="translate(560.37 316.23)"/><path d="M-311.1,145.61c11.18-16.68,16-34.17,14.59-53.73,1.62.48,2.86.75,4,1.2,22.59,8.94,45.14,18,67.78,26.78,3.52,1.36,4.84,3.2,4.8,6.91-.11,10.08-2.44,19.47-8.06,27.88-.81,1.23-2.88,2.56-4.16,2.38C-258.18,153.4-284.19,149.55-311.1,145.61Z" transform="translate(560.37 316.23)"/><path d="M-224.16,209.18c17.1-2.52,33.47-5,49.87-7.22,1.3-.18,3.73,1.16,4.12,2.31a151.1,151.1,0,0,1,4.53,16.62,4.53,4.53,0,0,1-2,3.85c-15.47,6.35-31,12.47-47.38,19A56.09,56.09,0,0,0-224.16,209.18Z" transform="translate(560.37 316.23)"/><path d="M-78.23,18.91a57.42,57.42,0,0,0,35.68.2C-44,31.86-45.41,44-46.81,56.17c-.39,3.3-1.27,6.62-1.1,9.89.29,5.4-2.76,6.86-7.2,7.25-1.15.1-2.31.29-3.46.35-12.11.61-13.54-.71-14.79-12.47C-74.83,47.36-76.53,33.56-78.23,18.91Z" transform="translate(560.37 316.23)"/><path d="M104.45,165.91a57.11,57.11,0,0,0-.12,35.63c-6.27-.68-12-1.27-17.7-1.94C76.2,198.39,65.8,197,55.36,196c-2.82-.29-4.29-1.33-4.67-4a69.22,69.22,0,0,1-1-7.41c-.31-11.39.8-12.49,12.09-13.71C75.71,169.31,89.58,167.63,104.45,165.91Z" transform="translate(560.37 316.23)"/><path d="M-42.61,347.77c-6.31-.75-12-2-17.79-2s-11.49,1.17-17.72,1.88c.84-7.1,1.72-14.46,2.58-21.81,1-8.74,2.21-17.47,3-26.24.26-3.12,1.54-4.47,4.38-4.86,2.13-.29,4.26-.8,6.4-.89,11.82-.51,13.17.78,14.41,12.33C-45.91,320.05-44.22,333.87-42.61,347.77Z" transform="translate(560.37 316.23)"/><path d="M-225.1,201.51a57.25,57.25,0,0,0,0-35.54c5.45.63,10.3,1.17,15.15,1.74,11.24,1.31,22.47,2.76,33.74,3.85,3.1.29,4.52,1.49,4.88,4.39.26,2.14.79,4.27.88,6.41.51,11.89-.7,13.14-12.42,14.39-12.75,1.36-25.48,2.92-38.21,4.39C-222.22,201.26-223.34,201.35-225.1,201.51Z" transform="translate(560.37 316.23)"/><path d="M-120.32,29.11A56,56,0,0,0-85.8,20c1.86,12.52,3.61,24.28,5.35,36.05.66,4.44,1.57,8.87,1.83,13.34.09,1.54-1.11,4.17-2.32,4.59a127.39,127.39,0,0,1-16.65,4.48c-1.17.24-3.51-1.27-4-2.5C-107.85,60.75-113.85,45.43-120.32,29.11Z" transform="translate(560.37 316.23)"/><path d="M-35.06,20.67c5.62,2.32,10.79,5.06,16.3,6.56S-7.35,29-1.23,29.9a13.75,13.75,0,0,1-.56,2.65C-7.39,46.77-13.07,61-18.61,75.19c-1,2.52-2.28,3.9-5.11,3.46-2.45-.39-5-.48-7.38-1C-41.62,75.21-42.79,73.57-41.29,63-39.28,48.86-37.15,34.78-35.06,20.67Z" transform="translate(560.37 316.23)"/><path d="M93.59,124.36c.81,6.09,1,12,2.49,17.5s4.17,10.74,6.53,16.59l-35.26,5.24c-4.44.66-8.88,1.57-13.35,1.83-1.53.09-3.45-1.16-4.67-2.34s-1.65-2.86-2.26-4.4c-4.72-12.07-3.56-14.8,8.21-19.48q16.92-6.74,33.87-13.43C90.65,125.28,92.2,124.83,93.59,124.36Z" transform="translate(560.37 316.23)"/><path d="M-85.77,347.62a55.82,55.82,0,0,0-34-9.28c.43-1.54.66-2.76,1.11-3.9,5.47-13.91,11-27.77,16.4-41.72,1.14-3,2.78-4.55,5.85-3.76,5.25,1.35,10.49,2.83,15.6,4.64a4.55,4.55,0,0,1,2.32,3.67C-80.76,313.82-83.24,330.35-85.77,347.62Z" transform="translate(560.37 316.23)"/><path d="M-224.1,158.37c6.53-10.64,10-21.7,9.06-34.52l30.29,12c5.1,2,10.12,4.26,15.32,6,3.35,1.12,4.42,3.08,3.91,6.32-.3,2-.47,4-.89,5.9-2.37,10.89-4.06,12.17-14.77,10.66C-195.28,162.69-209.37,160.54-224.1,158.37Z" transform="translate(560.37 316.23)"/><path d="M103.42,209.18c-6.62,10.54-9.91,21.5-9.17,34a36.2,36.2,0,0,1-3.87-1.07c-13.91-5.47-27.78-11.05-41.73-16.41-2.94-1.13-4.39-2.67-3.89-5.84.34-2.13.47-4.3.92-6.4,2.33-10.82,4.07-12.12,14.81-10.6C74.58,204.85,88.65,207,103.42,209.18Z" transform="translate(560.37 316.23)"/><path d="M-.42,338.42c-12.79-.56-23.91,2.17-34.53,9.18-2.2-14.92-4.34-29-6.34-43.08-1.51-10.64-.12-12.5,10.75-14.71a25.89,25.89,0,0,1,7.4-.76c1.44.13,3.51,1.34,4,2.58C-12.88,306.84-6.88,322.15-.42,338.42Z" transform="translate(560.37 316.23)"/><path d="M37.48,317.56c-12.24,2.74-22.29,8.28-30.65,17.6-.77-1.41-1.46-2.45-1.95-3.58-6-13.73-11.79-27.51-17.89-41.18-1.32-3-1-5,1.53-6.8,1.35-1,2.56-2.13,3.93-3.07,10.25-7,12.6-6.65,19.81,3.07Z" transform="translate(560.37 316.23)"/><path d="M-157.79,50.57c5.64-2.37,11.24-4.13,16.22-7s9.37-6.78,14.36-10.49a28,28,0,0,1,1.55,2.77c6,13.73,11.8,27.5,17.88,41.17,1.29,2.9,1.21,5-1.4,6.82-1.63,1.16-3.08,2.56-4.75,3.65-9.76,6.39-11.94,6-18.7-3.1Z" transform="translate(560.37 316.23)"/><path d="M-127.34,335.53c-8.63-9.7-18.66-15.23-30.83-18l24.66-33.19a12,12,0,0,1,.9-1.19c2.56-2.57,5.25-7.38,7.67-7.25,7.1.37,13,4.57,17.71,10.07a3.15,3.15,0,0,1,.08,2.68C-113.72,304-120.37,319.37-127.34,335.53Z" transform="translate(560.37 316.23)"/><path d="M6.6,32a56.5,56.5,0,0,0,30.82,18c-5.91,8-11.54,15.57-17.18,23.16q-4.6,6.21-9.24,12.4c-5.82,7.8-6.9,8-15.65,3.22-.44-.24-.86-.5-1.29-.76-8.81-5.4-9-6.13-5-15.56Z" transform="translate(560.37 316.23)"/><path d="M26.14,113.62,9.78,97.26c11.7-14.8,22.52-28.46,33.8-42.71a55.62,55.62,0,0,0,25.2,25.32Z" transform="translate(560.37 316.23)"/><path d="M-146.86,253.91l16.33,16.39-33.8,42.7a55.33,55.33,0,0,0-25.21-25.33C-175.33,276.44-161.67,265.62-146.86,253.91Z" transform="translate(560.37 316.23)"/><path d="M-212.12,116.79a56.68,56.68,0,0,0,18-30.83c13.92,10.35,27.4,20.32,40.76,30.45a4,4,0,0,1,.94,3.78q-4.23,8.06-9.12,15.75a4,4,0,0,1-3.72,1C-180.65,130.42-196,123.75-212.12,116.79Z" transform="translate(560.37 316.23)"/><path d="M-189.54,79.86C-178.33,74-170,66.05-164.34,54.58c3.56,4.48,6.73,8.43,9.87,12.4,6.93,8.75,13.74,17.59,20.83,26.2,1.94,2.37,2.13,4.22.36,6.51-1.22,1.58-2.28,3.29-3.59,4.79-7.92,9-10,9.17-19.2,1.89C-167,97.67-178,89-189.54,79.86Z" transform="translate(560.37 316.23)"/><path d="M68.82,287.7a55.86,55.86,0,0,0-25.27,25.23L28.43,293.86c-5.17-6.53-10.21-13.17-15.56-19.54-2-2.36-2.08-4.23-.31-6.51,1.23-1.58,2.28-3.29,3.6-4.78,7.93-9,10-9.14,19.21-1.83C46.32,269.9,57.29,278.57,68.82,287.7Z" transform="translate(560.37 316.23)"/><path d="M91.29,116.78l-18.31,8c-9,3.9-18.06,7.66-27,11.77-2.84,1.31-4.66.79-6.4-1.46-1.12-1.44-2.37-2.8-3.39-4.3-6.83-10-6.42-12.46,3-19.46C50.46,103,61.66,94.65,73.4,85.92,76.19,98.13,81.7,108.32,91.29,116.78Z" transform="translate(560.37 316.23)"/><path d="M-194.17,281.54c-2.78-12.16-8.28-22.23-17.55-30.52a32.19,32.19,0,0,1,3.12-1.81c13.88-6,27.81-11.9,41.62-18.06,3-1.32,5-1.05,6.79,1.52,1,1.35,2.14,2.55,3.08,3.92,7,10.16,6.6,12.64-3.09,19.82s-19.22,14.3-28.83,21.44C-190.6,279-192.2,280.13-194.17,281.54Z" transform="translate(560.37 316.23)"/><path d="M73.42,281.63c-13.9-10.33-27.26-20.19-40.49-30.23-1-.74-1.75-3.16-1.27-4.1,2.78-5.38,5.87-10.63,9.13-15.74.52-.81,2.75-1.32,3.74-.91,15.42,6.49,30.77,13.16,46.75,20A56.75,56.75,0,0,0,73.42,281.63Z" transform="translate(560.37 316.23)"/><path d="M-77.22,289.31l-21.3-5.78,6-15.25c1.52-3.86,3.24-7.66,4.5-11.61,1.11-3.49,3.23-4.27,6.43-3.37,1.75.49,3.51,1,5.25,1.5,3,.92,4,2.61,3.36,6C-74.64,270.39-75.87,280.09-77.22,289.31Z" transform="translate(560.37 316.23)"/><path d="M-98.53,83.94l21.27-5.7c1.46,9.7,3.06,20,4.46,30.32a3.65,3.65,0,0,1-1.57,3.08,64.85,64.85,0,0,1-10,2.79A3.29,3.29,0,0,1-87,112.86C-91,103.07-94.87,93.21-98.53,83.94Z" transform="translate(560.37 316.23)"/><path d="M-22.23,84c-3.64,9.2-7.47,19.06-11.51,28.83-.35.85-2.11,1.66-3.16,1.59a39.94,39.94,0,0,1-6.79-1.4c-3.68-.92-4.77-2.93-4-6.92,1.76-9.44,2.89-19,4.2-27.93Z" transform="translate(560.37 316.23)"/><path d="M-160.11,145.63c9.19,3.65,18.77,7.34,28.22,11.32,1.08.46,2,2.44,2.11,3.79a15.3,15.3,0,0,1-.94,5.36c-1.13,3.8-2.72,6.06-7.75,5-9.21-2-18.65-2.9-27.52-4.19C-164,159.8-162.15,153-160.11,145.63Z" transform="translate(560.37 316.23)"/><path d="M45.16,200.65c-2,7.31-3.78,14-5.74,21.17-4-1.56-8.76-3.37-13.47-5.21-3.56-1.38-7.18-2.65-10.63-4.26-2.26-1.06-6.1-2.69-6.07-4,.1-3.8,1.69-7.6,2.93-11.32.18-.54,1.69-1,2.49-.91C25,197.6,35.33,199.18,45.16,200.65Z" transform="translate(560.37 316.23)"/><path d="M-43.5,289.23c-1.46-9.71-3.06-19.86-4.42-30.05a4.32,4.32,0,0,1,1.83-3.43,35.59,35.59,0,0,1,6.49-2.36c3.67-1.2,5.72,0,7.09,3.8,3.24,9,6.93,17.88,10.31,26.45Z" transform="translate(560.37 316.23)"/><path d="M46.05,194.81c-9.93-1.14-20-2.18-30-3.57-1.29-.18-3-2-3.38-3.35-2.21-8.38-.09-11.27,8.41-12.25s16.75-2,25-2.94Z" transform="translate(560.37 316.23)"/><path d="M-141.48,117.87l15.09-15.38,19,24c-1,1.49-1.73,2.95-2.73,4.23-5,6.37-6.86,6.59-13,1.7Z" transform="translate(560.37 316.23)"/><path d="M5.6,102.54l15,15.46L-3.09,136.75c-1.47-.91-2.8-1.59-4-2.48-6.56-5-6.85-7.08-1.88-13.37C-3.59,114.13,1.78,107.37,5.6,102.54Z" transform="translate(560.37 316.23)"/><path d="M39.43,145.61c2,7.34,3.74,14,5.69,21.26-8.09,1.21-16.82,2.62-25.58,3.78-2.45.33-6.48.82-7.2-.35-1.91-3.09-2.54-7-3.36-10.7-.16-.71.94-2.2,1.78-2.54C20.4,153.11,30.1,149.31,39.43,145.61Z" transform="translate(560.37 316.23)"/><path d="M-126.3,264.92l-15.3-15.14,24-19a51.66,51.66,0,0,1,4.57,3c6.06,4.93,6.22,6.62,1.39,12.72C-117.12,253.36-122.57,260.22-126.3,264.92Z" transform="translate(560.37 316.23)"/><path d="M20.59,249.52,5.52,264.88C.81,258.94-5.71,250.82-12,242.55c-.63-.82-.48-2.87.12-3.86,2-3.26,4.3-6.29,6.63-9.62Z" transform="translate(560.37 316.23)"/><path d="M-166.79,194.83V172.77l21.68,2.42c1.49.17,3,.41,4.45.56,6.92.7,10.39,7.52,6.91,13.79a3.46,3.46,0,0,1-2.24,1.62C-146.33,192.46-156.68,193.65-166.79,194.83Z" transform="translate(560.37 316.23)"/><path d="M-160.22,221.93l-5.65-21.27c9.91-1.48,20.33-3.11,30.78-4.5.87-.12,2.37,1.08,2.84,2a40.27,40.27,0,0,1,2.29,6.52c1,3.38.09,5.45-3.54,6.77C-142.65,214.81-151.64,218.55-160.22,221.93Z" transform="translate(560.37 316.23)"/><path d="M-49.34,290.18h-22C-70.6,283.34-69.8,276-69,268.7a35,35,0,0,1,.67-4.93c.6-2.27,1.11-6.13,2.28-6.38,3.76-.79,7.81-.36,11.73-.07.58,0,1.38,1.79,1.51,2.82C-51.58,270.17-50.47,280.22-49.34,290.18Z" transform="translate(560.37 316.23)"/><path d="M-71.42,77.36h22c-.74,6.8-1.54,14.1-2.34,21.4a33.5,33.5,0,0,1-.73,5.42c-.65,2.2-1.41,5.9-2.62,6.11-3.77.66-7.78,0-11.69-.24-.37,0-.9-1-1-1.59C-69,98-70.24,87.47-71.42,77.36Z" transform="translate(560.37 316.23)"/><path d="M-16.8,281.31c-3.91-9-8.06-18.45-12-27.95a4.12,4.12,0,0,1,.84-3.79,48.84,48.84,0,0,1,8.57-4.85,3.63,3.63,0,0,1,3.3,1C-9.72,254-3.53,262.4,2.39,270.35Z" transform="translate(560.37 316.23)"/><path d="M-104,86.2c3.91,9,8.14,18.56,12.12,28.2A4.29,4.29,0,0,1-93,118.16a35.12,35.12,0,0,1-6.22,4c-2.66,1.49-4.68,1.17-6.66-1.64-5.64-8-11.62-15.78-17.27-23.37Z" transform="translate(560.37 316.23)"/><path d="M-16.48,85.56c3.29,2.41,6.06,4.8,9.16,6.61S-1,95,2.76,96.65c-6.27,8.43-12.54,17-19,25.35a3.63,3.63,0,0,1-3.36.78,53.31,53.31,0,0,1-8.52-5,3.69,3.69,0,0,1-.84-3.38C-24.91,104.8-20.7,95.26-16.48,85.56Z" transform="translate(560.37 316.23)"/><path d="M37.22,227.38c-3.8,6.6-7.31,12.7-11,19.13-7.92-5.89-16.34-12.07-24.61-18.45a4.23,4.23,0,0,1-.89-3.77A34.33,34.33,0,0,1,4,217.65c1.56-2.64,3.5-3.35,6.63-1.89C19.52,219.88,28.56,223.63,37.22,227.38Z" transform="translate(560.37 316.23)"/><path d="M-147,246.5l-10.93-19.13c9.09-3.94,18.79-8.21,28.57-12.27.83-.34,2.53.43,3.35,1.19,6.32,5.88,6,10.19-.78,15.24Z" transform="translate(560.37 316.23)"/><path d="M-146.9,121.06c7.82,5.82,16,11.78,24,18a5,5,0,0,1,1.34,4.47,29.59,29.59,0,0,1-4.45,7.66,4.15,4.15,0,0,1-3.75,1.07c-9.64-4-19.18-8.2-28.22-12.12Z" transform="translate(560.37 316.23)"/><path d="M-123.09,270.31c5.9-7.93,12.08-16.34,18.43-24.63a3.75,3.75,0,0,1,3.32-1,43.62,43.62,0,0,1,7.1,3.48c2.67,1.55,3.31,3.53,1.87,6.63-4.11,8.87-7.87,17.91-11.62,26.54Z" transform="translate(560.37 316.23)"/><path d="M26.17,121.05l11,19.08L18,148.53c-1.52.67-3,1.31-4.58,2-6.84,2.93-12.26-.41-13-8.14a3.78,3.78,0,0,1,1.13-2.89C9.85,133.14,18.25,126.94,26.17,121.05Z" transform="translate(560.37 316.23)"/><path d="M-60.94,167.65C-63,150-65,132.42-67.09,114.6h13.43q-3.08,26.61-6.15,53.09Z" transform="translate(560.37 316.23)"/><path d="M8.82,177v13.42l-53-6.1-.09-1.12Z" transform="translate(560.37 316.23)"/><path d="M-53.64,253H-67.08q3.08-26.59,6.15-53.09l1.09-.05C-57.78,217.45-55.72,235.08-53.64,253Z" transform="translate(560.37 316.23)"/><path d="M-129.56,177l53.08,6.17,0,1.09-53.13,6.21Z" transform="translate(560.37 316.23)"/><path d="M-36,248.82l-13,3.44c-2.56-17.36-5.14-34.84-7.71-52.32l1.14-.36Q-45.76,224.18-36,248.82Z" transform="translate(560.37 316.23)"/><path d="M-84.77,118.7l13-3.44q3.86,26.29,7.69,52.53l-1.1.3C-71.69,151.68-78.2,135.26-84.77,118.7Z" transform="translate(560.37 316.23)"/><path d="M-56.66,167.64-49,115.23l13,3.52L-55.5,168Z" transform="translate(560.37 316.23)"/><path d="M-71.75,252.34l-13-3.57c6.47-16.31,13-32.74,19.48-49.17l1.15.24C-66.64,217.24-69.17,234.64-71.75,252.34Z" transform="translate(560.37 316.23)"/><path d="M-89.12,247.09l-11.61-6.87,31.5-42.34,1.07.52Q-78.63,222.7-89.12,247.09Z" transform="translate(560.37 316.23)"/><path d="M-69.1,169.81l-31.66-42.52,11.62-6.75,21.06,48.68Z" transform="translate(560.37 316.23)"/><path d="M-52.63,169.18q10.5-24.33,21-48.71L-20,127.31l-31.52,42.38Z" transform="translate(560.37 316.23)"/><path d="M-125.43,208.15c-1.19-4.48-2.24-8.43-3.44-13l52.34-7.71.36,1.12Z" transform="translate(560.37 316.23)"/><path d="M-44.39,187.46l52.57,7.7-3.52,13L-44.7,188.56Z" transform="translate(560.37 316.23)"/><path d="M8.17,172.39l-52.52,7.68-.33-1.09L4.68,159.39C5.91,164,7,167.92,8.17,172.39Z" transform="translate(560.37 316.23)"/><path d="M-123.69,155c2.51-4.22,4.6-7.75,6.86-11.58l42.35,31.49c-.18.36-.35.71-.53,1.06Z" transform="translate(560.37 316.23)"/><path d="M-76.39,180.06l-52.51-7.67c1.16-4.32,2.25-8.39,3.49-13L-76.11,179Z" transform="translate(560.37 316.23)"/><path d="M-3.89,224.14l-42.54-31.65.55-1,48.77,21Z" transform="translate(560.37 316.23)"/><path d="M-116.89,224.18l-6.7-11.65,48.64-21,.59,1Z" transform="translate(560.37 316.23)"/><path d="M-51.67,197.68-20,240.26-31.62,247l-21.06-48.76Z" transform="translate(560.37 316.23)"/><path d="M-113.26,140.23l9.39-9.29L-72,171.15l-.93.95Z" transform="translate(560.37 316.23)"/><path d="M-47.73,195.47l40.08,31.7-9.47,9.11-31.56-39.85Z" transform="translate(560.37 316.23)"/><path d="M-112.94,227.06-73,195.47l1,.88-31.71,40.11C-106.74,233.4-109.68,230.38-112.94,227.06Z" transform="translate(560.37 316.23)"/><path d="M-46.26,174.92l42.39-31.54L2.85,155l-48.64,21Z" transform="translate(560.37 316.23)"/><path d="M-48.68,171.14-16.92,131l9.52,9.16-40.29,31.89Z" transform="translate(560.37 316.23)"/></svg>