<svg id="Layer_1" data-name="Layer 1" xmlns="http://www.w3.org/2000/svg" viewBox="0 0 156 156"><defs><style>.cls-1,.cls-2{fill:red;}.cls-1,.cls-2,.cls-3{stroke:#e6e6e6;stroke-miterlimit:10;stroke-width:5px;}.cls-1{opacity:0.7;}.cls-3{fill:none;}</style></defs><circle class="cls-1" cx="78" cy="78" r="75.5"/><path class="cls-2" d="M195.41,106.26" transform="translate(-94 -68)"/><line class="cls-2" x1="75.04" y1="23.86" x2="75.23" y2="132.6"/><line class="cls-2" x1="21.04" y1="82.16" x2="132.48" y2="81.97"/><line class="cls-2" x1="119" y1="40.93" x2="39.6" y2="118.67"/><polyline class="cls-2" points="34.85 42.88 63.03 70.29 114.51 120.35"/><path class="cls-3" d="M169.09,121.27a17.58,17.58,0,0,0,7.42,8.93,18.3,18.3,0,0,0,11.36,2.43,10.75,10.75,0,0,0-1.17,11.09,11.31,11.31,0,0,0,10.12,6.3,14.42,14.42,0,0,0-9.17,6.33A13.69,13.69,0,0,0,186,166.5a16.19,16.19,0,0,0-9.47.7,15.79,15.79,0,0,0-7.39,6A9.88,9.88,0,0,0,152.73,167a12.82,12.82,0,0,0-8.33-16.92,18.09,18.09,0,0,0,6.23-9,17.42,17.42,0,0,0,0-9.92,17.49,17.49,0,0,0,11.1-1.83A16.8,16.8,0,0,0,169.09,121.27Z" transform="translate(-94 -68)"/><path class="cls-3" d="M168.46,105.93a27,27,0,0,0,11.4,13.72,28.12,28.12,0,0,0,17.48,3.75,16.52,16.52,0,0,0-1.8,17,17.32,17.32,0,0,0,15.56,9.68A22.18,22.18,0,0,0,197,159.87a21,21,0,0,0-2.47,15.61A25.06,25.06,0,0,0,180,176.55a24.37,24.37,0,0,0-11.37,9.16c-.05-.47-1.12-8.47-8.55-11.9a15.72,15.72,0,0,0-16.74,2.49c.41-1.1,3.4-9.68-1.77-17.72a20.8,20.8,0,0,0-11-8.31,27.79,27.79,0,0,0,9.58-13.89,27,27,0,0,0,0-15.27,26.93,26.93,0,0,0,17.06-2.8A25.8,25.8,0,0,0,168.46,105.93Z" transform="translate(-94 -68)"/><path class="cls-3" d="M168.14,92a35.4,35.4,0,0,0,15,18,37,37,0,0,0,23,4.92,21.73,21.73,0,0,0-2.36,22.4,22.78,22.78,0,0,0,20.45,12.74c-1.75.35-12.32,2.68-18.54,12.79a27.55,27.55,0,0,0-3.24,20.51,33,33,0,0,0-19.15,1.41,32,32,0,0,0-14.93,12c-.07-.63-1.47-11.13-11.24-15.64a20.63,20.63,0,0,0-22,3.27c.53-1.45,4.47-12.72-2.34-23.29a27.29,27.29,0,0,0-14.5-10.92A36.38,36.38,0,0,0,130.83,132a35.42,35.42,0,0,0,0-20.06,35.36,35.36,0,0,0,22.42-3.69A34,34,0,0,0,168.14,92Z" transform="translate(-94 -68)"/><ellipse class="cls-3" cx="171.45" cy="146" rx="55.95" ry="54.6" transform="translate(-94.24 -67.71) rotate(-0.1)"/></svg>